# This file uses centimeters as units for non-parametric coordinates.

mtllib arbol1.mtl
g default
v 0.375632 0.037391 -0.315193
v 0.085149 0.037391 -0.482904
v -0.245177 0.037391 -0.424658
v -0.460781 0.037391 -0.167711
v -0.460781 0.037391 0.167711
v -0.245177 0.037391 0.424658
v 0.085149 0.037391 0.482904
v 0.375632 0.037391 0.315193
v 0.490353 0.037391 0.000000
v 0.375632 2.074716 -0.315193
v 0.085149 2.074716 -0.482904
v -0.245177 2.074716 -0.424658
v -0.460781 2.074716 -0.167711
v -0.460781 2.074716 0.167711
v -0.245177 2.074716 0.424658
v 0.085149 2.074716 0.482904
v 0.375632 2.074716 0.315193
v 0.490353 2.074716 0.000000
vt 0.375000 0.312500
vt 0.402778 0.312500
vt 0.430556 0.312500
vt 0.458333 0.312500
vt 0.486111 0.312500
vt 0.513889 0.312500
vt 0.541667 0.312500
vt 0.569445 0.312500
vt 0.597222 0.312500
vt 0.625000 0.312500
vt 0.375000 0.688440
vt 0.402778 0.688440
vt 0.430556 0.688440
vt 0.458333 0.688440
vt 0.486111 0.688440
vt 0.513889 0.688440
vt 0.541667 0.688440
vt 0.569445 0.688440
vt 0.597222 0.688440
vt 0.625000 0.688440
vn 0.500000 0.000000 -0.866025
vn 0.500000 0.000000 -0.866025
vn 0.500000 0.000000 -0.866025
vn 0.500000 0.000000 -0.866025
vn -0.173648 0.000000 -0.984808
vn -0.173648 0.000000 -0.984808
vn -0.173648 0.000000 -0.984808
vn -0.173648 0.000000 -0.984808
vn -0.766044 0.000000 -0.642788
vn -0.766044 0.000000 -0.642788
vn -0.766044 0.000000 -0.642788
vn -0.766044 0.000000 -0.642788
vn -1.000000 0.000000 -0.000000
vn -1.000000 0.000000 -0.000000
vn -1.000000 0.000000 -0.000000
vn -1.000000 0.000000 -0.000000
vn -0.766044 0.000000 0.642788
vn -0.766044 0.000000 0.642788
vn -0.766044 0.000000 0.642788
vn -0.766044 0.000000 0.642788
vn -0.173648 0.000000 0.984808
vn -0.173648 0.000000 0.984808
vn -0.173648 0.000000 0.984808
vn -0.173648 0.000000 0.984808
vn 0.500000 0.000000 0.866025
vn 0.500000 0.000000 0.866025
vn 0.500000 0.000000 0.866025
vn 0.500000 0.000000 0.866025
vn 0.939693 0.000000 0.342020
vn 0.939693 0.000000 0.342020
vn 0.939693 0.000000 0.342020
vn 0.939693 0.000000 0.342020
vn 0.939693 0.000000 -0.342020
vn 0.939693 0.000000 -0.342020
vn 0.939693 0.000000 -0.342020
vn 0.939693 0.000000 -0.342020
s off
g pCylinder47
usemtl lambert25SG
f 1/1/1 2/2/2 11/12/3 10/11/4
f 2/2/5 3/3/6 12/13/7 11/12/8
f 3/3/9 4/4/10 13/14/11 12/13/12
f 4/4/13 5/5/14 14/15/15 13/14/16
f 5/5/17 6/6/18 15/16/19 14/15/20
f 6/6/21 7/7/22 16/17/23 15/16/24
f 7/7/25 8/8/26 17/18/27 16/17/28
f 8/8/29 9/9/30 18/19/31 17/18/32
f 9/9/33 1/10/34 10/20/35 18/19/36
g default
v 1.637632 1.053196 -0.532099
v 1.393053 1.053196 -1.012112
v 1.012112 1.053196 -1.393053
v 0.532099 1.053196 -1.637632
v 0.000000 1.053196 -1.721908
v -0.532099 1.053196 -1.637632
v -1.012112 1.053196 -1.393053
v -1.393053 1.053196 -1.012112
v -1.637632 1.053196 -0.532099
v -1.721908 1.053196 0.000000
v -1.637632 1.053196 0.532099
v -1.393053 1.053196 1.012112
v -1.012112 1.053196 1.393053
v -0.532099 1.053196 1.637631
v -0.000000 1.053196 1.721908
v 0.532099 1.053196 1.637631
v 1.012112 1.053196 1.393052
v 1.393052 1.053196 1.012112
v 1.637631 1.053196 0.532099
v 1.721907 1.053196 0.000000
v 0.509804 2.762351 0.701685
v 0.269300 2.754065 0.828820
v -0.000000 2.751193 0.872909
v -0.269300 2.754065 0.828820
v -0.509804 2.762351 0.701685
v -0.696526 2.775103 0.506056
v 0.696526 2.775103 0.506056
v 0.818816 2.775103 0.266049
v 0.860954 2.775103 0.000000
v 0.818816 2.775103 -0.266049
v 0.696527 2.775103 -0.506056
v 0.506056 2.775103 -0.696527
v 0.266049 2.775103 -0.818816
v 0.000000 2.775103 -0.860954
v -0.266049 2.775103 -0.818816
v -0.506056 2.775103 -0.696526
v -0.696526 2.775103 -0.506056
v -0.818816 2.775103 -0.266049
v -0.860954 2.775103 0.000000
v -0.815963 2.781102 0.265122
vt 0.020848 0.342213
vt 0.038997 0.342213
vt 0.057146 0.342213
vt 0.075295 0.342213
vt 0.093444 0.342213
vt 0.111593 0.342213
vt 0.129741 0.342213
vt 0.147890 0.342213
vt 0.166039 0.342213
vt 0.184188 0.342213
vt 0.202337 0.342213
vt 0.220486 0.342213
vt 0.238635 0.342213
vt 0.256784 0.342213
vt 0.274932 0.342213
vt 0.293081 0.342213
vt 0.311230 0.342213
vt 0.329379 0.342213
vt 0.347528 0.342213
vt 0.365677 0.342213
vt 0.383826 0.342213
vt 0.257200 0.522312
vt 0.248274 0.521441
vt 0.239147 0.521140
vt 0.229899 0.521441
vt 0.220625 0.522316
vt 0.211411 0.523702
vt 0.265858 0.523702
vt 0.274932 0.523702
vt 0.284007 0.523702
vt 0.293081 0.523702
vt 0.111593 0.523702
vt 0.120667 0.523702
vt 0.129741 0.523702
vt 0.138816 0.523702
vt 0.147890 0.523702
vt 0.156965 0.523702
vt 0.166039 0.523702
vt 0.175114 0.523702
vt 0.184188 0.523702
vt 0.193263 0.523702
vt 0.202337 0.524334
vn -0.723758 0.447214 0.525523
vn -0.525967 0.447214 0.723435
vn -0.528967 0.447210 0.721247
vn -0.725735 0.447211 0.522792
vn -0.276542 0.447214 0.850603
vn -0.278405 0.447213 0.849995
vn 0.000000 0.447214 0.894427
vn 0.000000 0.447214 0.894427
vn 0.276542 0.447214 0.850603
vn 0.278405 0.447213 0.849995
vn 0.525967 0.447214 0.723435
vn 0.528967 0.447210 0.721247
vn 0.723710 0.447214 0.525590
vn 0.725063 0.447212 0.523723
vn 0.850651 0.447214 0.276393
vn 0.850651 0.447214 0.276393
vn 0.894427 0.447214 0.000001
vn 0.894427 0.447214 0.000001
vn 0.850651 0.447214 -0.276392
vn 0.850651 0.447214 -0.276392
vn 0.723607 0.447214 -0.525731
vn 0.723607 0.447214 -0.525731
vn 0.525731 0.447214 -0.723607
vn 0.525731 0.447214 -0.723607
vn 0.276393 0.447214 -0.850651
vn 0.276393 0.447214 -0.850651
vn -0.000000 0.447214 -0.894427
vn -0.000000 0.447214 -0.894427
vn -0.276393 0.447214 -0.850651
vn -0.276393 0.447214 -0.850651
vn -0.525731 0.447214 -0.723607
vn -0.525731 0.447214 -0.723607
vn -0.723607 0.447214 -0.525731
vn -0.723607 0.447214 -0.525731
vn -0.850651 0.447214 -0.276393
vn -0.850651 0.447214 -0.276393
vn -0.894427 0.447214 0.000082
vn -0.894427 0.447213 0.001148
vn -0.850651 0.447214 0.276393
vn -0.850651 0.447214 0.276393
s 1
g pCone1
usemtl lambert17SG
f 30/32/37 31/33/38 43/46/39 44/47/40
f 31/33/38 32/34/41 42/45/42 43/46/39
f 32/34/41 33/35/43 41/44/44 42/45/42
f 33/35/43 34/36/45 40/43/46 41/44/44
f 34/36/45 35/37/47 39/42/48 40/43/46
f 35/37/47 36/38/49 45/48/50 39/42/48
f 36/38/49 37/39/51 46/49/52 45/48/50
f 37/39/51 38/40/53 47/50/54 46/49/52
f 38/40/53 19/41/55 48/51/56 47/50/54
f 19/21/55 20/22/57 49/53/58 48/52/56
f 20/22/57 21/23/59 50/54/60 49/53/58
f 21/23/59 22/24/61 51/55/62 50/54/60
f 22/24/61 23/25/63 52/56/64 51/55/62
f 23/25/63 24/26/65 53/57/66 52/56/64
f 24/26/65 25/27/67 54/58/68 53/57/66
f 25/27/67 26/28/69 55/59/70 54/58/68
f 26/28/69 27/29/71 56/60/72 55/59/70
f 27/29/71 28/30/73 57/61/74 56/60/72
f 28/30/73 29/31/75 58/62/76 57/61/74
f 29/31/75 30/32/37 44/47/40 58/62/76
g default
v 1.098299 3.195040 -0.356859
v 0.934269 3.195040 -0.678786
v 0.678786 3.195040 -0.934269
v 0.356859 3.195040 -1.098299
v 0.000000 3.195040 -1.154820
v -0.356859 3.195040 -1.098299
v -0.678786 3.195040 -0.934269
v -0.934269 3.195040 -0.678786
v -1.098299 3.195040 -0.356859
v -1.154819 3.195040 0.000000
v -1.098299 3.195040 0.356859
v -0.934269 3.195040 0.678786
v -0.678786 3.195040 0.934268
v -0.356859 3.195040 1.098298
v -0.000000 3.195040 1.154819
v 0.356859 3.195040 1.098298
v 0.678786 3.195040 0.934268
v 0.934268 3.195040 0.678786
v 1.098298 3.195040 0.356859
v 1.154819 3.195040 0.000000
v 0.341906 4.341306 0.470594
v 0.180609 4.335749 0.555859
v -0.000000 4.333823 0.585428
v -0.180609 4.335749 0.555859
v -0.341906 4.341306 0.470594
v -0.467134 4.349859 0.339393
v 0.467134 4.349859 0.339393
v 0.549149 4.349859 0.178429
v 0.577410 4.349859 0.000000
v 0.549150 4.349859 -0.178429
v 0.467134 4.349859 -0.339393
v 0.339393 4.349859 -0.467134
v 0.178429 4.349859 -0.549149
v 0.000000 4.349859 -0.577410
v -0.178429 4.349859 -0.549149
v -0.339393 4.349859 -0.467134
v -0.467134 4.349859 -0.339393
v -0.549149 4.349859 -0.178429
v -0.577410 4.349859 0.000000
v -0.547236 4.353882 0.177808
vt 0.492754 0.152280
vt 0.475547 0.118510
vt 0.448748 0.091710
vt 0.414978 0.074504
vt 0.377544 0.068575
vt 0.340110 0.074504
vt 0.306340 0.091710
vt 0.279540 0.118510
vt 0.262333 0.152280
vt 0.256405 0.189714
vt 0.262333 0.227148
vt 0.279540 0.260918
vt 0.306340 0.287717
vt 0.340110 0.304924
vt 0.377544 0.310853
vt 0.414978 0.304924
vt 0.448747 0.287717
vt 0.475547 0.260918
vt 0.492754 0.227148
vt 0.498683 0.189714
vt 0.036201 0.583505
vt 0.053945 0.583505
vt 0.071689 0.583505
vt 0.089433 0.583505
vt 0.107177 0.583505
vt 0.124921 0.583505
vt 0.142665 0.583505
vt 0.160409 0.583505
vt 0.178153 0.583505
vt 0.195897 0.583505
vt 0.213641 0.583505
vt 0.231385 0.583505
vt 0.249128 0.583505
vt 0.266872 0.583505
vt 0.284616 0.583505
vt 0.302360 0.583505
vt 0.320104 0.583505
vt 0.337848 0.583505
vt 0.355592 0.583505
vt 0.373336 0.583505
vt 0.391080 0.583505
vt 0.267280 0.759586
vt 0.258553 0.758735
vt 0.249629 0.758441
vt 0.240588 0.758735
vt 0.231520 0.759590
vt 0.222513 0.760945
vt 0.275744 0.760945
vt 0.284616 0.760945
vt 0.293488 0.760945
vt 0.302360 0.760945
vt 0.124921 0.760945
vt 0.133793 0.760945
vt 0.142665 0.760945
vt 0.151537 0.760945
vt 0.160409 0.760945
vt 0.169281 0.760945
vt 0.178153 0.760945
vt 0.187025 0.760945
vt 0.195897 0.760945
vt 0.204769 0.760945
vt 0.213641 0.761563
vn 0.000000 -1.000000 -0.000000
vn 0.000000 -1.000000 -0.000000
vn 0.000000 -1.000000 -0.000000
vn 0.000000 -1.000000 -0.000000
vn 0.000000 -1.000000 -0.000000
vn 0.000000 -1.000000 -0.000000
vn 0.000000 -1.000000 -0.000000
vn 0.000000 -1.000000 -0.000000
vn 0.000000 -1.000000 -0.000000
vn 0.000000 -1.000000 -0.000000
vn 0.000000 -1.000000 -0.000000
vn 0.000000 -1.000000 -0.000000
vn 0.000000 -1.000000 -0.000000
vn 0.000000 -1.000000 -0.000000
vn 0.000000 -1.000000 -0.000000
vn 0.000000 -1.000000 -0.000000
vn 0.000000 -1.000000 -0.000000
vn 0.000000 -1.000000 -0.000000
vn 0.000000 -1.000000 -0.000000
vn 0.000000 -1.000000 -0.000000
vn -0.723758 0.447214 0.525523
vn -0.525967 0.447214 0.723435
vn -0.528967 0.447210 0.721247
vn -0.725734 0.447211 0.522792
vn -0.276542 0.447214 0.850603
vn -0.278405 0.447213 0.849995
vn 0.000000 0.447214 0.894427
vn 0.000000 0.447214 0.894427
vn 0.276542 0.447214 0.850602
vn 0.278405 0.447213 0.849995
vn 0.525967 0.447214 0.723435
vn 0.528967 0.447210 0.721246
vn 0.723710 0.447214 0.525590
vn 0.725063 0.447212 0.523723
vn 0.850651 0.447214 0.276393
vn 0.850651 0.447214 0.276393
vn 0.894427 0.447214 0.000001
vn 0.894427 0.447214 0.000001
vn 0.850651 0.447214 -0.276392
vn 0.850651 0.447214 -0.276392
vn 0.723607 0.447214 -0.525731
vn 0.723607 0.447214 -0.525731
vn 0.525731 0.447214 -0.723607
vn 0.525731 0.447214 -0.723607
vn 0.276393 0.447214 -0.850651
vn 0.276393 0.447214 -0.850651
vn -0.000000 0.447214 -0.894427
vn -0.000000 0.447214 -0.894427
vn -0.276393 0.447214 -0.850651
vn -0.276393 0.447214 -0.850651
vn -0.525731 0.447214 -0.723607
vn -0.525731 0.447214 -0.723607
vn -0.723607 0.447214 -0.525731
vn -0.723607 0.447214 -0.525731
vn -0.850651 0.447214 -0.276393
vn -0.850651 0.447214 -0.276393
vn -0.894427 0.447214 0.000083
vn -0.894427 0.447214 0.001148
vn -0.850651 0.447214 0.276394
vn -0.850651 0.447214 0.276394
s off
g pCone3
usemtl lambert17SG
f 59/63/77 78/82/78 77/81/79 76/80/80 75/79/81 74/78/82 73/77/83 72/76/84 71/75/85 70/74/86 69/73/87 68/72/88 67/71/89 66/70/90 65/69/91 64/68/92 63/67/93 62/66/94 61/65/95 60/64/96
s 1
f 70/94/97 71/95/98 83/108/99 84/109/100
f 71/95/98 72/96/101 82/107/102 83/108/99
f 72/96/101 73/97/103 81/106/104 82/107/102
f 73/97/103 74/98/105 80/105/106 81/106/104
f 74/98/105 75/99/107 79/104/108 80/105/106
f 75/99/107 76/100/109 85/110/110 79/104/108
f 76/100/109 77/101/111 86/111/112 85/110/110
f 77/101/111 78/102/113 87/112/114 86/111/112
f 78/102/113 59/103/115 88/113/116 87/112/114
f 59/83/115 60/84/117 89/115/118 88/114/116
f 60/84/117 61/85/119 90/116/120 89/115/118
f 61/85/119 62/86/121 91/117/122 90/116/120
f 62/86/121 63/87/123 92/118/124 91/117/122
f 63/87/123 64/88/125 93/119/126 92/118/124
f 64/88/125 65/89/127 94/120/128 93/119/126
f 65/89/127 66/90/129 95/121/130 94/120/128
f 66/90/129 67/91/131 96/122/132 95/121/130
f 67/91/131 68/92/133 97/123/134 96/122/132
f 68/92/133 69/93/135 98/124/136 97/123/134
f 69/93/135 70/94/97 84/109/100 98/124/136
g default
v 0.951057 3.918392 -0.309017
v 0.809018 3.918392 -0.587786
v 0.587786 3.918392 -0.809017
v 0.309017 3.918392 -0.951057
v 0.000000 3.918392 -1.000000
v -0.309017 3.918392 -0.951057
v -0.587785 3.918392 -0.809017
v -0.809017 3.918392 -0.587785
v -0.951057 3.918392 -0.309017
v -1.000000 3.918392 0.000000
v -0.951057 3.918392 0.309017
v -0.809017 3.918392 0.587785
v -0.587785 3.918392 0.809017
v -0.309017 3.918392 0.951057
v -0.000000 3.918392 1.000000
v 0.309017 3.918392 0.951057
v 0.587785 3.918392 0.809017
v 0.809017 3.918392 0.587785
v 0.951057 3.918392 0.309017
v 1.000000 3.918392 0.000000
v 0.000000 5.918392 0.000000
vt 0.222671 0.142938
vt 0.208098 0.114337
vt 0.185400 0.091640
vt 0.156799 0.077067
vt 0.125095 0.072045
vt 0.093391 0.077067
vt 0.064790 0.091640
vt 0.042093 0.114337
vt 0.027520 0.142938
vt 0.022498 0.174642
vt 0.027520 0.206346
vt 0.042093 0.234947
vt 0.064790 0.257645
vt 0.093391 0.272218
vt 0.125095 0.277239
vt 0.156799 0.272218
vt 0.185400 0.257645
vt 0.208098 0.234947
vt 0.222671 0.206346
vt 0.227692 0.174642
vt 0.406996 0.602362
vt 0.424586 0.602362
vt 0.442176 0.602362
vt 0.459766 0.602362
vt 0.477355 0.602362
vt 0.494945 0.602362
vt 0.512535 0.602362
vt 0.530124 0.602362
vt 0.547714 0.602362
vt 0.565304 0.602362
vt 0.582894 0.602362
vt 0.600483 0.602362
vt 0.618073 0.602362
vt 0.635663 0.602362
vt 0.653252 0.602362
vt 0.670842 0.602362
vt 0.688432 0.602362
vt 0.706021 0.602362
vt 0.723611 0.602362
vt 0.741201 0.602362
vt 0.758790 0.602362
vt 0.582893 0.954156
vn 0.000000 -1.000000 -0.000000
vn 0.000000 -1.000000 -0.000000
vn 0.000000 -1.000000 -0.000000
vn 0.000000 -1.000000 -0.000000
vn 0.000000 -1.000000 -0.000000
vn 0.000000 -1.000000 -0.000000
vn 0.000000 -1.000000 -0.000000
vn 0.000000 -1.000000 -0.000000
vn 0.000000 -1.000000 -0.000000
vn 0.000000 -1.000000 -0.000000
vn 0.000000 -1.000000 -0.000000
vn 0.000000 -1.000000 -0.000000
vn 0.000000 -1.000000 -0.000000
vn 0.000000 -1.000000 -0.000000
vn 0.000000 -1.000000 -0.000000
vn 0.000000 -1.000000 -0.000000
vn 0.000000 -1.000000 -0.000000
vn 0.000000 -1.000000 -0.000000
vn 0.000000 -1.000000 -0.000000
vn 0.000000 -1.000000 -0.000000
vn 0.850651 0.447214 -0.276392
vn 0.723607 0.447214 -0.525731
vn -0.000000 1.000000 -0.000001
vn 0.525731 0.447214 -0.723607
vn 0.276393 0.447214 -0.850651
vn -0.000000 0.447214 -0.894427
vn -0.276393 0.447214 -0.850651
vn -0.525731 0.447214 -0.723607
vn -0.723607 0.447214 -0.525731
vn -0.850651 0.447214 -0.276393
vn -0.894427 0.447214 0.000000
vn -0.850651 0.447214 0.276393
vn -0.723607 0.447214 0.525732
vn -0.525731 0.447214 0.723607
vn -0.276393 0.447214 0.850651
vn 0.000000 0.447214 0.894427
vn 0.276393 0.447214 0.850651
vn 0.525731 0.447214 0.723607
vn 0.723607 0.447214 0.525731
vn 0.850651 0.447214 0.276393
vn 0.894427 0.447214 0.000001
s off
g pCone4
usemtl lambert17SG
f 99/125/137 118/144/138 117/143/139 116/142/140 115/141/141 114/140/142 113/139/143 112/138/144 111/137/145 110/136/146 109/135/147 108/134/148 107/133/149 106/132/150 105/131/151 104/130/152 103/129/153 102/128/154 101/127/155 100/126/156
s 1
f 99/145/157 100/146/158 119/166/159
f 100/146/158 101/147/160 119/166/159
f 101/147/160 102/148/161 119/166/159
f 102/148/161 103/149/162 119/166/159
f 103/149/162 104/150/163 119/166/159
f 104/150/163 105/151/164 119/166/159
f 105/151/164 106/152/165 119/166/159
f 106/152/165 107/153/166 119/166/159
f 107/153/166 108/154/167 119/166/159
f 108/154/167 109/155/168 119/166/159
f 109/155/168 110/156/169 119/166/159
f 110/156/169 111/157/170 119/166/159
f 111/157/170 112/158/171 119/166/159
f 112/158/171 113/159/172 119/166/159
f 113/159/172 114/160/173 119/166/159
f 114/160/173 115/161/174 119/166/159
f 115/161/174 116/162/175 119/166/159
f 116/162/175 117/163/176 119/166/159
f 117/163/176 118/164/177 119/166/159
f 118/164/177 99/165/157 119/166/159
g default
v 1.414129 2.162257 -0.459478
v 1.202930 2.162257 -0.873980
v 0.873980 2.162257 -1.202930
v 0.459478 2.162257 -1.414129
v 0.000000 2.162257 -1.486903
v -0.459478 2.162257 -1.414129
v -0.873980 2.162257 -1.202930
v -1.202930 2.162257 -0.873980
v -1.414129 2.162257 -0.459478
v -1.486903 2.162257 0.000000
v -1.414129 2.162257 0.459478
v -1.202930 2.162257 0.873980
v -0.873980 2.162257 1.202930
v -0.459478 2.162257 1.414129
v -0.000000 2.162257 1.486903
v 0.459478 2.162257 1.414129
v 0.873979 2.162257 1.202929
v 1.202929 2.162257 0.873979
v 1.414128 2.162257 0.459478
v 1.486902 2.162257 0.000000
v 0.440226 3.638148 0.605919
v 0.232546 3.630993 0.715703
v -0.000000 3.628513 0.753775
v -0.232546 3.630993 0.715703
v -0.440226 3.638148 0.605919
v -0.601465 3.649160 0.436990
v 0.601465 3.649160 0.436990
v 0.707064 3.649160 0.229739
v 0.743451 3.649160 0.000000
v 0.707065 3.649160 -0.229739
v 0.601465 3.649160 -0.436990
v 0.436990 3.649160 -0.601465
v 0.229739 3.649160 -0.707065
v 0.000000 3.649160 -0.743452
v -0.229739 3.649160 -0.707065
v -0.436990 3.649160 -0.601465
v -0.601465 3.649160 -0.436990
v -0.707064 3.649160 -0.229739
v -0.743451 3.649160 0.000000
v -0.704601 3.654341 0.228939
vt 0.817816 0.150865
vt 0.797362 0.110721
vt 0.765503 0.078863
vt 0.725359 0.058408
vt 0.680858 0.051360
vt 0.636358 0.058408
vt 0.596214 0.078863
vt 0.564355 0.110721
vt 0.543901 0.150865
vt 0.536853 0.195366
vt 0.543901 0.239866
vt 0.564355 0.280010
vt 0.596214 0.311869
vt 0.636358 0.332323
vt 0.680858 0.339371
vt 0.725359 0.332323
vt 0.765503 0.311869
vt 0.797362 0.280010
vt 0.817816 0.239866
vt 0.824864 0.195366
vt 0.408226 0.354970
vt 0.430591 0.354970
vt 0.452956 0.354970
vt 0.475321 0.354970
vt 0.497686 0.354970
vt 0.520051 0.354970
vt 0.542416 0.354970
vt 0.564781 0.354970
vt 0.587146 0.354970
vt 0.609511 0.354970
vt 0.631876 0.354970
vt 0.654241 0.354970
vt 0.676606 0.354970
vt 0.698971 0.354970
vt 0.721336 0.354970
vt 0.743701 0.354970
vt 0.766066 0.354970
vt 0.788431 0.354970
vt 0.810796 0.354970
vt 0.833160 0.354970
vt 0.855525 0.354970
vt 0.699484 0.576907
vt 0.688485 0.575834
vt 0.677237 0.575463
vt 0.665841 0.575834
vt 0.654412 0.576911
vt 0.643059 0.578619
vt 0.710153 0.578619
vt 0.721336 0.578619
vt 0.732518 0.578619
vt 0.743701 0.578619
vt 0.520051 0.578619
vt 0.531234 0.578619
vt 0.542416 0.578619
vt 0.553599 0.578619
vt 0.564781 0.578619
vt 0.575964 0.578619
vt 0.587146 0.578619
vt 0.598329 0.578619
vt 0.609511 0.578619
vt 0.620694 0.578619
vt 0.631876 0.579399
vn 0.000000 -1.000000 0.000000
vn 0.000000 -1.000000 0.000000
vn 0.000000 -1.000000 0.000000
vn 0.000000 -1.000000 0.000000
vn 0.000000 -1.000000 0.000000
vn 0.000000 -1.000000 0.000000
vn 0.000000 -1.000000 0.000000
vn 0.000000 -1.000000 0.000000
vn 0.000000 -1.000000 0.000000
vn 0.000000 -1.000000 0.000000
vn 0.000000 -1.000000 0.000000
vn 0.000000 -1.000000 0.000000
vn 0.000000 -1.000000 0.000000
vn 0.000000 -1.000000 0.000000
vn 0.000000 -1.000000 0.000000
vn 0.000000 -1.000000 0.000000
vn 0.000000 -1.000000 0.000000
vn 0.000000 -1.000000 0.000000
vn 0.000000 -1.000000 0.000000
vn 0.000000 -1.000000 0.000000
vn -0.723758 0.447214 0.525523
vn -0.525967 0.447214 0.723435
vn -0.528967 0.447210 0.721247
vn -0.725735 0.447211 0.522792
vn -0.276542 0.447214 0.850603
vn -0.278404 0.447213 0.849995
vn 0.000000 0.447214 0.894427
vn 0.000000 0.447214 0.894427
vn 0.276542 0.447214 0.850603
vn 0.278405 0.447213 0.849995
vn 0.525967 0.447214 0.723435
vn 0.528968 0.447210 0.721247
vn 0.723710 0.447214 0.525590
vn 0.725063 0.447212 0.523723
vn 0.850651 0.447214 0.276393
vn 0.850651 0.447214 0.276393
vn 0.894427 0.447214 0.000001
vn 0.894427 0.447214 0.000001
vn 0.850651 0.447214 -0.276392
vn 0.850651 0.447214 -0.276392
vn 0.723607 0.447214 -0.525731
vn 0.723607 0.447214 -0.525731
vn 0.525731 0.447214 -0.723607
vn 0.525731 0.447214 -0.723607
vn 0.276393 0.447214 -0.850651
vn 0.276393 0.447214 -0.850651
vn -0.000000 0.447214 -0.894427
vn -0.000000 0.447214 -0.894427
vn -0.276393 0.447214 -0.850651
vn -0.276393 0.447214 -0.850651
vn -0.525731 0.447214 -0.723607
vn -0.525731 0.447214 -0.723607
vn -0.723607 0.447214 -0.525731
vn -0.723607 0.447214 -0.525731
vn -0.850651 0.447214 -0.276393
vn -0.850651 0.447214 -0.276393
vn -0.894427 0.447214 0.000082
vn -0.894427 0.447213 0.001148
vn -0.850651 0.447214 0.276393
vn -0.850651 0.447214 0.276393
s off
g pCone2
usemtl lambert17SG
f 120/167/178 139/186/179 138/185/180 137/184/181 136/183/182 135/182/183 134/181/184 133/180/185 132/179/186 131/178/187 130/177/188 129/176/189 128/175/190 127/174/191 126/173/192 125/172/193 124/171/194 123/170/195 122/169/196 121/168/197
s 1
f 131/198/198 132/199/199 144/212/200 145/213/201
f 132/199/199 133/200/202 143/211/203 144/212/200
f 133/200/202 134/201/204 142/210/205 143/211/203
f 134/201/204 135/202/206 141/209/207 142/210/205
f 135/202/206 136/203/208 140/208/209 141/209/207
f 136/203/208 137/204/210 146/214/211 140/208/209
f 137/204/210 138/205/212 147/215/213 146/214/211
f 138/205/212 139/206/214 148/216/215 147/215/213
f 139/206/214 120/207/216 149/217/217 148/216/215
f 120/187/216 121/188/218 150/219/219 149/218/217
f 121/188/218 122/189/220 151/220/221 150/219/219
f 122/189/220 123/190/222 152/221/223 151/220/221
f 123/190/222 124/191/224 153/222/225 152/221/223
f 124/191/224 125/192/226 154/223/227 153/222/225
f 125/192/226 126/193/228 155/224/229 154/223/227
f 126/193/228 127/194/230 156/225/231 155/224/229
f 127/194/230 128/195/232 157/226/233 156/225/231
f 128/195/232 129/196/234 158/227/235 157/226/233
f 129/196/234 130/197/236 159/228/237 158/227/235
f 130/197/236 131/198/198 145/213/201 159/228/237
