# This file uses centimeters as units for non-parametric coordinates.

mtllib hojasola.mtl
g default
v -0.340624 -0.051952 0.344340
v -0.274848 -0.052347 0.437859
v -0.183394 -0.052158 0.506480
v -0.075215 -0.051404 0.543485
v 0.039100 -0.050158 0.545251
v 0.148361 -0.048543 0.511605
v 0.241873 -0.046717 0.445842
v 0.310482 -0.044858 0.354399
v 0.347473 -0.043148 0.246226
v 0.349223 -0.041755 0.131912
v 0.315563 -0.040815 0.022648
v -0.342613 0.127532 0.346497
v -0.276837 0.127137 0.440016
v -0.185383 0.127326 0.508637
v -0.077204 0.128080 0.545641
v 0.037111 0.129326 0.547407
v 0.146372 0.130941 0.513762
v 0.239884 0.132767 0.447999
v 0.308493 0.134627 0.356556
v 0.345484 0.136336 0.248383
v 0.347234 0.137729 0.134069
v 0.313574 0.138669 0.024805
v -0.318096 0.307466 0.335659
v -0.257633 0.307103 0.421623
v -0.173568 0.307277 0.484700
v -0.074129 0.307970 0.518715
v 0.030951 0.309115 0.520338
v 0.131385 0.310599 0.489411
v 0.217342 0.312278 0.428961
v 0.280408 0.313987 0.344905
v 0.314410 0.315559 0.245471
v 0.316020 0.316839 0.140393
v 0.285079 0.317703 0.039956
v -0.288704 0.487483 0.322432
v -0.234533 0.487158 0.399451
v -0.159215 0.487313 0.455965
v -0.070122 0.487934 0.486441
v 0.024024 0.488960 0.487895
v 0.114008 0.490290 0.460186
v 0.191021 0.491794 0.406026
v 0.247525 0.493326 0.330716
v 0.277989 0.494734 0.241628
v 0.279431 0.495881 0.147483
v 0.251710 0.496655 0.057497
v -0.253030 0.667606 0.306124
v -0.206409 0.667326 0.372408
v -0.141590 0.667460 0.421044
v -0.064915 0.667995 0.447272
v 0.016108 0.668877 0.448524
v 0.093549 0.670022 0.424677
v 0.159828 0.671317 0.378066
v 0.208456 0.672634 0.313253
v 0.234674 0.673846 0.236584
v 0.235915 0.674834 0.155561
v 0.212057 0.675500 0.078118
v -0.222639 0.847640 0.292407
v -0.182510 0.847399 0.349461
v -0.126716 0.847514 0.391325
v -0.060718 0.847974 0.413901
v 0.009024 0.848734 0.414979
v 0.075682 0.849720 0.394452
v 0.132731 0.850834 0.354332
v 0.174589 0.851968 0.298544
v 0.197156 0.853011 0.232549
v 0.198224 0.853861 0.162809
v 0.177689 0.854434 0.096149
v -0.195030 1.027626 0.280053
v -0.160835 1.027421 0.328671
v -0.113291 1.027519 0.364345
v -0.057052 1.027911 0.383582
v 0.002377 1.028559 0.384500
v 0.059178 1.029399 0.367009
v 0.107792 1.030348 0.332821
v 0.143460 1.031314 0.285282
v 0.162690 1.032203 0.229047
v 0.163600 1.032928 0.169619
v 0.146101 1.033416 0.112816
v -0.173777 1.207505 0.270816
v -0.144241 1.207328 0.312809
v -0.103176 1.207413 0.343621
v -0.054600 1.207751 0.360238
v -0.003270 1.208310 0.361030
v 0.045792 1.209036 0.345923
v 0.087781 1.209856 0.316393
v 0.118589 1.210691 0.275333
v 0.135199 1.211458 0.226760
v 0.135985 1.212084 0.175430
v 0.120871 1.212506 0.126367
v -0.150727 1.387414 0.260698
v -0.126212 1.387267 0.295554
v -0.092125 1.387337 0.321130
v -0.051806 1.387618 0.334922
v -0.009199 1.388083 0.335580
v 0.031524 1.388685 0.323040
v 0.066378 1.389365 0.298529
v 0.091949 1.390058 0.264447
v 0.105736 1.390696 0.224129
v 0.106389 1.391215 0.181523
v 0.093843 1.391565 0.140798
v -0.130528 1.567275 0.251977
v -0.110460 1.567154 0.280508
v -0.082559 1.567212 0.301443
v -0.049555 1.567442 0.312733
v -0.014679 1.567822 0.313272
v 0.018655 1.568315 0.303007
v 0.047184 1.568872 0.282944
v 0.068115 1.569439 0.255045
v 0.079401 1.569961 0.222043
v 0.079935 1.570386 0.187168
v 0.069666 1.570673 0.153833
v -0.114284 1.747068 0.245195
v -0.097872 1.746970 0.268530
v -0.075053 1.747017 0.285652
v -0.048061 1.747205 0.294885
v -0.019537 1.747516 0.295325
v 0.007725 1.747919 0.286930
v 0.031057 1.748375 0.270522
v 0.048176 1.748839 0.247705
v 0.057406 1.749265 0.220714
v 0.057843 1.749613 0.192191
v 0.049444 1.749847 0.164928
v -0.094820 1.926917 0.236834
v -0.082709 1.926844 0.254054
v -0.065870 1.926879 0.266689
v -0.045951 1.927018 0.273503
v -0.024902 1.927247 0.273828
v -0.004784 1.927544 0.267633
v 0.012434 1.927881 0.255524
v 0.025067 1.928223 0.238687
v 0.031878 1.928538 0.218769
v 0.032200 1.928794 0.197721
v 0.026002 1.928967 0.177602
v -0.078574 2.106710 0.230051
v -0.070118 2.106660 0.242073
v -0.058362 2.106684 0.250894
v -0.044456 2.106781 0.255651
v -0.029761 2.106941 0.255878
v -0.015716 2.107148 0.251553
v -0.003695 2.107383 0.243099
v 0.005125 2.107622 0.231345
v 0.009880 2.107842 0.217439
v 0.010105 2.108021 0.202744
v 0.005778 2.108142 0.188699
v -0.062039 2.286509 0.223127
v -0.057297 2.286480 0.229869
v -0.050704 2.286494 0.234816
v -0.042906 2.286548 0.237483
v -0.034665 2.286638 0.237610
v -0.026788 2.286755 0.235185
v -0.020047 2.286886 0.230444
v -0.015101 2.287020 0.223852
v -0.012435 2.287143 0.216054
v -0.012308 2.287244 0.207813
v -0.014735 2.287312 0.199937
v -0.047461 2.466274 0.217162
v -0.046041 2.466266 0.219182
v -0.044066 2.466270 0.220664
v -0.041730 2.466286 0.221463
v -0.039261 2.466313 0.221501
v -0.036901 2.466348 0.220774
v -0.034882 2.466387 0.219354
v -0.033400 2.466427 0.217379
v -0.032601 2.466465 0.215043
v -0.032564 2.466495 0.212575
v -0.033291 2.466515 0.210215
v -0.040376 2.466394 0.213689
vt 0.019343 0.011389
vt 0.042032 0.011389
vt 0.067747 0.010218
vt 0.094055 0.009701
vt 0.120693 0.009847
vt 0.147479 0.010478
vt 0.198575 0.012494
vt 0.221264 0.012494
vt 0.247259 0.011645
vt 0.273653 0.011467
vt 0.300235 0.011758
vt 0.017696 0.050600
vt 0.043006 0.050454
vt 0.068357 0.050261
vt 0.093945 0.050447
vt 0.119904 0.051191
vt 0.171427 0.051954
vt 0.197232 0.051893
vt 0.222234 0.051859
vt 0.247580 0.051953
vt 0.273354 0.052471
vt 0.299766 0.053493
vt 0.019308 0.092793
vt 0.043929 0.091821
vt 0.068377 0.091556
vt 0.092856 0.092032
vt 0.117506 0.093322
vt 0.173118 0.094485
vt 0.197896 0.093428
vt 0.222355 0.093073
vt 0.246796 0.093395
vt 0.271406 0.094461
vt 0.296313 0.096383
vt 0.022559 0.136783
vt 0.045479 0.135339
vt 0.068291 0.134911
vt 0.091082 0.135462
vt 0.113920 0.137010
vt 0.176599 0.138767
vt 0.199652 0.137147
vt 0.222552 0.136538
vt 0.245407 0.136880
vt 0.268299 0.138188
vt 0.291288 0.140546
vt 0.027173 0.182536
vt 0.047684 0.181083
vt 0.068259 0.180628
vt 0.088843 0.181155
vt 0.109386 0.182668
vt 0.181660 0.184814
vt 0.202288 0.183118
vt 0.222969 0.182433
vt 0.243652 0.182728
vt 0.264287 0.184005
vt 0.284805 0.186298
vt 0.031546 0.229583
vt 0.049827 0.228372
vt 0.068165 0.227996
vt 0.086507 0.228458
vt 0.104790 0.229759
vt 0.186703 0.232097
vt 0.205051 0.230617
vt 0.223464 0.229991
vt 0.241880 0.230220
vt 0.260241 0.231301
vt 0.278481 0.233233
vt 0.035723 0.278146
vt 0.051858 0.277202
vt 0.068049 0.276909
vt 0.084234 0.277277
vt 0.100360 0.278303
vt 0.191692 0.280732
vt 0.207819 0.279533
vt 0.224021 0.279011
vt 0.240230 0.279166
vt 0.256386 0.280000
vt 0.272426 0.281505
vt 0.039268 0.328129
vt 0.053617 0.327279
vt 0.067946 0.326980
vt 0.082254 0.327236
vt 0.096517 0.328042
vt 0.196056 0.330507
vt 0.210319 0.329462
vt 0.224590 0.328984
vt 0.238848 0.329076
vt 0.253079 0.329739
vt 0.267274 0.330963
vt 0.043676 0.379685
vt 0.055937 0.378872
vt 0.068209 0.378535
vt 0.080472 0.378672
vt 0.092697 0.379282
vt 0.201073 0.381571
vt 0.213216 0.380638
vt 0.225387 0.380187
vt 0.237555 0.380213
vt 0.249697 0.380716
vt 0.261785 0.381694
vt 0.048231 0.432423
vt 0.058503 0.431745
vt 0.068794 0.431428
vt 0.079083 0.431475
vt 0.089348 0.431882
vt 0.206059 0.433695
vt 0.216218 0.432957
vt 0.226410 0.432580
vt 0.236604 0.432560
vt 0.246785 0.432893
vt 0.256920 0.433583
vt 0.052549 0.486082
vt 0.061077 0.485462
vt 0.069603 0.485150
vt 0.078127 0.485144
vt 0.086642 0.485445
vt 0.210543 0.486748
vt 0.218998 0.486118
vt 0.227460 0.485787
vt 0.235921 0.485756
vt 0.244382 0.486020
vt 0.252839 0.486584
vt 0.058023 0.540538
vt 0.064409 0.540051
vt 0.070810 0.539793
vt 0.077217 0.539769
vt 0.083619 0.539981
vt 0.215951 0.540874
vt 0.222324 0.540401
vt 0.228717 0.540153
vt 0.235117 0.540133
vt 0.241514 0.540346
vt 0.247897 0.540781
vt 0.062997 0.595552
vt 0.067493 0.595223
vt 0.071999 0.595049
vt 0.076508 0.595034
vt 0.081016 0.595177
vt 0.220653 0.596024
vt 0.225189 0.595717
vt 0.229733 0.595566
vt 0.234282 0.595570
vt 0.238829 0.595727
vt 0.243369 0.596040
vt 0.068036 0.650947
vt 0.070574 0.650774
vt 0.073116 0.650687
vt 0.075662 0.650686
vt 0.078205 0.650770
vt 0.225360 0.652256
vt 0.227950 0.652094
vt 0.230544 0.652017
vt 0.233141 0.652027
vt 0.235736 0.652122
vt 0.238327 0.652304
vt 0.072419 0.706568
vt 0.073180 0.706519
vt 0.073944 0.706496
vt 0.074708 0.706497
vt 0.075470 0.706522
vt 0.229632 0.709357
vt 0.230413 0.709310
vt 0.231196 0.709290
vt 0.231979 0.709294
vt 0.232760 0.709321
vt 0.233543 0.709375
vt 0.939138 0.199192
vt 0.906235 0.133234
vt 0.854550 0.080632
vt 0.789092 0.046549
vt 0.716255 0.034367
vt 0.491454 0.054904
vt 0.426228 0.088427
vt 0.374542 0.140413
vt 0.341406 0.205812
vt 0.330054 0.278258
vt 0.950708 0.272243
vt 0.714309 0.270538
vt 0.076234 0.706572
vt 0.564506 0.043334
vt 0.564508 0.278026
vt 0.080744 0.650939
vt 0.085518 0.595475
vt 0.090002 0.540427
vt 0.095150 0.486048
vt 0.099564 0.432645
vt 0.104862 0.380359
vt 0.110734 0.329397
vt 0.116360 0.279982
vt 0.122951 0.231902
vt 0.129814 0.185197
vt 0.136858 0.139642
vt 0.142450 0.095537
vt 0.146465 0.052523
vt 0.172861 0.011590
vn -0.817874 -0.015975 0.575176
vn -0.717809 -0.016319 0.696049
vn -0.716412 0.063339 0.694796
vn -0.816212 0.062707 0.574340
vn -0.467554 -0.015802 0.883823
vn -0.466952 0.063855 0.881974
vn -0.171532 -0.013738 0.985083
vn -0.171869 0.065912 0.982912
vn 0.141281 -0.010330 0.989916
vn 0.139951 0.069309 0.987730
vn 0.440265 -0.005910 0.897848
vn 0.437985 0.073715 0.895955
vn 0.696152 -0.000912 0.717893
vn 0.693060 0.078697 0.716571
vn 0.883895 0.004175 0.467667
vn 0.880207 0.083768 0.467139
vn 0.985116 0.008854 0.171661
vn 0.981107 0.088432 0.172073
vn 0.989907 0.012666 -0.141148
vn 0.985883 0.092232 -0.139744
vn 0.955619 0.014126 -0.294267
vn 0.951788 0.092714 -0.292411
vn -0.708576 0.159727 0.687319
vn -0.807363 0.157960 0.568518
vn -0.462219 0.160235 0.872169
vn -0.170808 0.162267 0.971851
vn 0.137133 0.165622 0.976608
vn 0.431459 0.169973 0.885975
vn 0.683360 0.174893 0.708824
vn 0.868179 0.179901 0.462494
vn 0.967823 0.184507 0.171099
vn 0.972540 0.188260 -0.136837
vn 0.939165 0.187603 -0.287706
vn -0.704428 0.191914 0.683338
vn -0.802702 0.189791 0.565375
vn -0.459641 0.192420 0.867009
vn -0.170087 0.194438 0.966056
vn 0.135891 0.197772 0.970783
vn 0.428341 0.202095 0.880728
vn 0.678637 0.206984 0.704705
vn 0.862278 0.211960 0.459946
vn 0.961287 0.216537 0.170408
vn 0.965974 0.220265 -0.135566
vn 0.932956 0.219250 -0.285521
vn -0.703578 0.197847 0.682521
vn -0.801748 0.195660 0.564728
vn -0.459110 0.198352 0.865953
vn -0.169934 0.200368 0.964871
vn 0.135645 0.203697 0.969592
vn 0.427714 0.208015 0.879654
vn 0.677684 0.212897 0.703861
vn 0.861085 0.217867 0.459420
vn 0.959965 0.222437 0.170260
vn 0.964646 0.226161 -0.135315
vn 0.931700 0.225081 -0.285084
vn -0.706889 0.173560 0.685701
vn -0.805467 0.171639 0.567242
vn -0.461173 0.174068 0.870069
vn -0.170521 0.176094 0.969491
vn 0.136618 0.179441 0.974236
vn 0.430178 0.183780 0.883839
vn 0.681423 0.188687 0.707149
vn 0.865760 0.193682 0.461461
vn 0.965145 0.198276 0.170825
vn 0.969849 0.202019 -0.136310
vn 0.936621 0.201207 -0.286806
vn -0.709958 0.147410 0.688644
vn -0.808917 0.145784 0.569561
vn -0.463072 0.147920 0.873890
vn -0.171034 0.149956 0.973787
vn 0.137568 0.153319 0.978554
vn 0.432526 0.157679 0.887726
vn 0.684969 0.162610 0.710194
vn 0.870184 0.167628 0.463336
vn 0.970043 0.172244 0.171314
vn 0.974770 0.176005 -0.137284
vn 0.941273 0.175489 -0.288459
vn -0.711581 0.131453 0.690198
vn -0.810744 0.130011 0.570781
vn -0.464068 0.131964 0.875915
vn -0.171287 0.134005 0.976065
vn 0.138098 0.137376 0.980845
vn 0.433807 0.141748 0.889786
vn 0.686891 0.146691 0.711803
vn 0.872576 0.151723 0.464318
vn 0.972689 0.156350 0.171553
vn 0.977428 0.160120 -0.137828
vn 0.943787 0.159789 -0.289367
vn -0.711742 0.129753 0.690353
vn -0.810927 0.128330 0.570902
vn -0.464167 0.130264 0.876117
vn -0.171312 0.132306 0.976293
vn 0.138152 0.135677 0.981074
vn 0.433936 0.140050 0.889992
vn 0.687085 0.144994 0.711963
vn 0.872818 0.150027 0.464415
vn 0.972956 0.154656 0.171577
vn 0.977696 0.158427 -0.137884
vn 0.944040 0.158116 -0.289460
vn -0.713502 0.109569 0.692033
vn -0.812913 0.108382 0.572212
vn -0.465235 0.110081 0.878316
vn -0.171563 0.112129 0.978771
vn 0.138766 0.115510 0.983566
vn 0.435375 0.119894 0.892230
vn 0.689231 0.124853 0.713703
vn 0.875483 0.129900 0.465463
vn 0.975900 0.134541 0.171809
vn 0.980653 0.138323 -0.138516
vn 0.946837 0.138250 -0.290494
vn -0.713885 0.104672 0.692396
vn -0.813345 0.103543 0.572493
vn -0.465464 0.105185 0.878794
vn -0.171613 0.107233 0.979311
vn 0.138907 0.110617 0.984108
vn 0.435697 0.115004 0.892716
vn 0.689708 0.119965 0.714080
vn 0.876074 0.125015 0.465688
vn 0.976552 0.129660 0.171856
vn 0.981308 0.133444 -0.138660
vn 0.947456 0.133429 -0.290729
vn -0.713652 0.107697 0.692172
vn -0.813084 0.106533 0.572316
vn -0.465323 0.108210 0.878502
vn -0.171582 0.110257 0.978981
vn 0.138822 0.113640 0.983776
vn 0.435499 0.118025 0.892419
vn 0.689414 0.122985 0.713851
vn 0.875711 0.128032 0.465550
vn 0.976152 0.132675 0.171828
vn 0.980906 0.136458 -0.138573
vn 0.947075 0.136407 -0.290590
vn -0.714458 0.096880 0.692939
vn -0.813995 0.095844 0.572910
vn -0.465805 0.097394 0.879511
vn -0.171683 0.099444 0.980120
vn 0.139124 0.102831 0.984921
vn 0.436186 0.107222 0.893446
vn 0.690429 0.112188 0.714648
vn 0.876970 0.117243 0.466024
vn 0.977541 0.121891 0.171918
vn 0.982301 0.125679 -0.138887
vn 0.948394 0.125757 -0.291090
vn -0.714640 0.094216 0.693118
vn -0.814201 0.093212 0.573051
vn -0.465916 0.094730 0.879743
vn -0.171706 0.096781 0.980383
vn 0.139193 0.100169 0.985186
vn 0.436348 0.104561 0.893682
vn 0.690669 0.109529 0.714828
vn 0.877264 0.114585 0.466130
vn 0.977865 0.119235 0.171937
vn 0.982627 0.123023 -0.138957
vn 0.948704 0.123133 -0.291204
vn -0.715177 0.086009 0.693631
vn -0.814808 0.085103 0.573451
vn -0.466234 0.086522 0.880420
vn -0.171768 0.088575 0.981147
vn 0.139398 0.091966 0.985957
vn 0.436826 0.096363 0.894370
vn 0.691376 0.101335 0.715354
vn 0.878132 0.106395 0.466438
vn 0.978820 0.111049 0.171988
vn 0.983587 0.114841 -0.139169
vn 0.949612 0.115050 -0.291549
vn -0.011060 0.999867 0.012000
vn -0.011065 0.999866 0.012097
vn -0.011085 0.999866 0.012030
vn -0.011105 0.999866 0.012049
vn -0.011070 0.999867 0.011953
vn -0.011026 0.999867 0.012000
vn -0.011086 0.999866 0.012048
vn -0.011089 0.999867 0.012000
vn -0.011092 0.999866 0.012050
vn -0.011116 0.999865 0.012098
vn -0.011112 0.999866 0.012000
vn -0.011118 0.999866 0.012000
s 1
g pCylinder44
usemtl lambert14SG
f 1/1/1 2/2/2 13/13/3 12/12/4
f 2/2/2 3/3/5 14/14/6 13/13/3
f 3/3/5 4/4/7 15/15/8 14/14/6
f 4/4/7 5/5/9 16/16/10 15/15/8
f 5/5/9 6/6/11 17/193/12 16/16/10
f 6/194/11 7/7/13 18/18/14 17/17/12
f 7/7/13 8/8/15 19/19/16 18/18/14
f 8/8/15 9/9/17 20/20/18 19/19/16
f 9/9/17 10/10/19 21/21/20 20/20/18
f 10/10/19 11/11/21 22/22/22 21/21/20
f 12/12/4 13/13/3 24/24/23 23/23/24
f 13/13/3 14/14/6 25/25/25 24/24/23
f 14/14/6 15/15/8 26/26/26 25/25/25
f 15/15/8 16/16/10 27/27/27 26/26/26
f 16/16/10 17/193/12 28/192/28 27/27/27
f 17/17/12 18/18/14 29/29/29 28/28/28
f 18/18/14 19/19/16 30/30/30 29/29/29
f 19/19/16 20/20/18 31/31/31 30/30/30
f 20/20/18 21/21/20 32/32/32 31/31/31
f 21/21/20 22/22/22 33/33/33 32/32/32
f 23/23/24 24/24/23 35/35/34 34/34/35
f 24/24/23 25/25/25 36/36/36 35/35/34
f 25/25/25 26/26/26 37/37/37 36/36/36
f 26/26/26 27/27/27 38/38/38 37/37/37
f 27/27/27 28/192/28 39/191/39 38/38/38
f 28/28/28 29/29/29 40/40/40 39/39/39
f 29/29/29 30/30/30 41/41/41 40/40/40
f 30/30/30 31/31/31 42/42/42 41/41/41
f 31/31/31 32/32/32 43/43/43 42/42/42
f 32/32/32 33/33/33 44/44/44 43/43/43
f 34/34/35 35/35/34 46/46/45 45/45/46
f 35/35/34 36/36/36 47/47/47 46/46/45
f 36/36/36 37/37/37 48/48/48 47/47/47
f 37/37/37 38/38/38 49/49/49 48/48/48
f 38/38/38 39/191/39 50/190/50 49/49/49
f 39/39/39 40/40/40 51/51/51 50/50/50
f 40/40/40 41/41/41 52/52/52 51/51/51
f 41/41/41 42/42/42 53/53/53 52/52/52
f 42/42/42 43/43/43 54/54/54 53/53/53
f 43/43/43 44/44/44 55/55/55 54/54/54
f 45/45/46 46/46/45 57/57/56 56/56/57
f 46/46/45 47/47/47 58/58/58 57/57/56
f 47/47/47 48/48/48 59/59/59 58/58/58
f 48/48/48 49/49/49 60/60/60 59/59/59
f 49/49/49 50/190/50 61/189/61 60/60/60
f 50/50/50 51/51/51 62/62/62 61/61/61
f 51/51/51 52/52/52 63/63/63 62/62/62
f 52/52/52 53/53/53 64/64/64 63/63/63
f 53/53/53 54/54/54 65/65/65 64/64/64
f 54/54/54 55/55/55 66/66/66 65/65/65
f 56/56/57 57/57/56 68/68/67 67/67/68
f 57/57/56 58/58/58 69/69/69 68/68/67
f 58/58/58 59/59/59 70/70/70 69/69/69
f 59/59/59 60/60/60 71/71/71 70/70/70
f 60/60/60 61/189/61 72/188/72 71/71/71
f 61/61/61 62/62/62 73/73/73 72/72/72
f 62/62/62 63/63/63 74/74/74 73/73/73
f 63/63/63 64/64/64 75/75/75 74/74/74
f 64/64/64 65/65/65 76/76/76 75/75/75
f 65/65/65 66/66/66 77/77/77 76/76/76
f 67/67/68 68/68/67 79/79/78 78/78/79
f 68/68/67 69/69/69 80/80/80 79/79/78
f 69/69/69 70/70/70 81/81/81 80/80/80
f 70/70/70 71/71/71 82/82/82 81/81/81
f 71/71/71 72/188/72 83/187/83 82/82/82
f 72/72/72 73/73/73 84/84/84 83/83/83
f 73/73/73 74/74/74 85/85/85 84/84/84
f 74/74/74 75/75/75 86/86/86 85/85/85
f 75/75/75 76/76/76 87/87/87 86/86/86
f 76/76/76 77/77/77 88/88/88 87/87/87
f 78/78/79 79/79/78 90/90/89 89/89/90
f 79/79/78 80/80/80 91/91/91 90/90/89
f 80/80/80 81/81/81 92/92/92 91/91/91
f 81/81/81 82/82/82 93/93/93 92/92/92
f 82/82/82 83/187/83 94/186/94 93/93/93
f 83/83/83 84/84/84 95/95/95 94/94/94
f 84/84/84 85/85/85 96/96/96 95/95/95
f 85/85/85 86/86/86 97/97/97 96/96/96
f 86/86/86 87/87/87 98/98/98 97/97/97
f 87/87/87 88/88/88 99/99/99 98/98/98
f 89/89/90 90/90/89 101/101/100 100/100/101
f 90/90/89 91/91/91 102/102/102 101/101/100
f 91/91/91 92/92/92 103/103/103 102/102/102
f 92/92/92 93/93/93 104/104/104 103/103/103
f 93/93/93 94/186/94 105/185/105 104/104/104
f 94/94/94 95/95/95 106/106/106 105/105/105
f 95/95/95 96/96/96 107/107/107 106/106/106
f 96/96/96 97/97/97 108/108/108 107/107/107
f 97/97/97 98/98/98 109/109/109 108/108/108
f 98/98/98 99/99/99 110/110/110 109/109/109
f 100/100/101 101/101/100 112/112/111 111/111/112
f 101/101/100 102/102/102 113/113/113 112/112/111
f 102/102/102 103/103/103 114/114/114 113/113/113
f 103/103/103 104/104/104 115/115/115 114/114/114
f 104/104/104 105/185/105 116/184/116 115/115/115
f 105/105/105 106/106/106 117/117/117 116/116/116
f 106/106/106 107/107/107 118/118/118 117/117/117
f 107/107/107 108/108/108 119/119/119 118/118/118
f 108/108/108 109/109/109 120/120/120 119/119/119
f 109/109/109 110/110/110 121/121/121 120/120/120
f 111/111/112 112/112/111 123/123/122 122/122/123
f 112/112/111 113/113/113 124/124/124 123/123/122
f 113/113/113 114/114/114 125/125/125 124/124/124
f 114/114/114 115/115/115 126/126/126 125/125/125
f 115/115/115 116/184/116 127/183/127 126/126/126
f 116/116/116 117/117/117 128/128/128 127/127/127
f 117/117/117 118/118/118 129/129/129 128/128/128
f 118/118/118 119/119/119 130/130/130 129/129/129
f 119/119/119 120/120/120 131/131/131 130/130/130
f 120/120/120 121/121/121 132/132/132 131/131/131
f 122/122/123 123/123/122 134/134/133 133/133/134
f 123/123/122 124/124/124 135/135/135 134/134/133
f 124/124/124 125/125/125 136/136/136 135/135/135
f 125/125/125 126/126/126 137/137/137 136/136/136
f 126/126/126 127/183/127 138/182/138 137/137/137
f 127/127/127 128/128/128 139/139/139 138/138/138
f 128/128/128 129/129/129 140/140/140 139/139/139
f 129/129/129 130/130/130 141/141/141 140/140/140
f 130/130/130 131/131/131 142/142/142 141/141/141
f 131/131/131 132/132/132 143/143/143 142/142/142
f 133/133/134 134/134/133 145/145/144 144/144/145
f 134/134/133 135/135/135 146/146/146 145/145/144
f 135/135/135 136/136/136 147/147/147 146/146/146
f 136/136/136 137/137/137 148/148/148 147/147/147
f 137/137/137 138/182/138 149/181/149 148/148/148
f 138/138/138 139/139/139 150/150/150 149/149/149
f 139/139/139 140/140/140 151/151/151 150/150/150
f 140/140/140 141/141/141 152/152/152 151/151/151
f 141/141/141 142/142/142 153/153/153 152/152/152
f 142/142/142 143/143/143 154/154/154 153/153/153
f 144/144/145 145/145/144 156/156/155 155/155/156
f 145/145/144 146/146/146 157/157/157 156/156/155
f 146/146/146 147/147/147 158/158/158 157/157/157
f 147/147/147 148/148/148 159/159/159 158/158/158
f 148/148/148 149/181/149 160/178/160 159/159/159
f 149/149/149 150/150/150 161/161/161 160/160/160
f 150/150/150 151/151/151 162/162/162 161/161/161
f 151/151/151 152/152/152 163/163/163 162/162/162
f 152/152/152 153/153/153 164/164/164 163/163/163
f 153/153/153 154/154/154 165/165/165 164/164/164
s 2
f 155/175/166 156/174/167 166/180/168
f 156/174/167 157/173/169 166/180/168
f 157/173/169 158/172/170 166/180/168
f 158/172/170 159/171/171 166/180/168
f 159/171/171 160/179/172 166/180/168
f 160/170/172 161/169/173 166/177/168
f 161/169/173 162/168/174 166/177/168
f 162/168/174 163/167/175 166/177/168
f 163/167/175 164/166/176 166/177/168
f 164/166/176 165/176/177 166/177/168
