# This file uses centimeters as units for non-parametric coordinates.

mtllib piedra2.mtl
g default
v 1.298270 0.025537 0.651155
v 0.407556 -0.011355 0.840383
v 1.058711 0.876188 0.081438
v 1.461147 -0.004216 -0.387615
v -0.382496 0.000743 0.387615
v 0.442924 0.697723 0.281471
v 0.671096 -0.005799 -0.840383
v -0.219619 -0.014133 -0.651155
vt 0.788112 0.616437
vt 0.370690 0.551473
vt 0.793491 0.300216
vt 0.584516 0.919427
vt 0.445145 0.356298
vt 0.029128 0.316241
vt 0.473742 0.019876
vt 0.149097 0.059665
vt 0.650484 0.018388
vt 0.485081 0.356849
vt 0.039551 0.599276
vt 0.424847 0.582002
vn 0.556965 0.564723 0.608998
vn 0.371498 0.926122 -0.065479
vn -0.125306 0.605953 0.785569
vn 0.719655 0.552794 -0.420136
vn -0.381857 0.922033 0.063566
vn 0.008543 0.771910 -0.635675
vn -0.623163 0.763687 0.168673
vn -0.365285 0.846733 -0.386795
s 1
g pPlatonic1
usemtl lambert24SG
f 1/1/1 3/12/2 2/3/3
f 1/1/1 4/4/4 3/12/2
f 2/3/3 3/12/2 6/10/5
f 3/2/2 4/11/4 7/6/6
f 2/3/3 6/10/5 5/9/7
f 3/2/2 7/6/6 6/5/5
f 5/7/7 6/5/5 8/8/8
f 6/5/5 7/6/6 8/8/8
