# This file uses centimeters as units for non-parametric coordinates.

mtllib torch.mtl
g default
v -0.031736 0.836525 0.048353
v 0.031736 0.836525 0.048353
v -0.031736 0.841172 0.160192
v 0.031736 0.841172 0.160192
v -0.031736 0.777715 0.160103
v 0.031736 0.777715 0.160103
v -0.031736 0.773068 0.048264
v 0.031736 0.773068 0.048264
vt 0.375000 0.000000
vt 0.375000 0.250000
vt 0.625000 0.250000
vt 0.625000 0.000000
vt 0.375000 0.500000
vt 0.625000 0.500000
vt 0.375000 0.750000
vt 0.625000 0.750000
vt 0.375000 1.000000
vt 0.625000 1.000000
vt 0.875000 0.250000
vt 0.875000 0.000000
vt 0.125000 0.000000
vt 0.125000 0.250000
vn 0.000000 0.999138 -0.041514
vn 0.000000 0.999138 -0.041514
vn 0.000000 0.999138 -0.041514
vn 0.000000 0.999138 -0.041514
vn 0.000000 -0.001405 0.999999
vn 0.000000 -0.001405 0.999999
vn 0.000000 -0.001405 0.999999
vn 0.000000 -0.001405 0.999999
vn 0.000000 -0.999138 0.041516
vn 0.000000 -0.999138 0.041516
vn 0.000000 -0.999138 0.041516
vn 0.000000 -0.999138 0.041516
vn 0.000000 0.001406 -0.999999
vn 0.000000 0.001406 -0.999999
vn 0.000000 0.001406 -0.999999
vn 0.000000 0.001406 -0.999999
vn 1.000000 0.000000 0.000000
vn 1.000000 0.000000 0.000000
vn 1.000000 0.000000 0.000000
vn 1.000000 0.000000 0.000000
vn -1.000000 0.000000 0.000000
vn -1.000000 0.000000 0.000000
vn -1.000000 0.000000 0.000000
vn -1.000000 0.000000 0.000000
s off
g pCube4
usemtl lambert21SG
f 1/1/1 3/2/2 4/3/3 2/4/4
f 3/2/5 5/5/6 6/6/7 4/3/8
f 5/5/9 7/7/10 8/8/11 6/6/12
f 7/7/13 1/9/14 2/10/15 8/8/16
f 2/4/17 4/3/18 6/11/19 8/12/20
f 7/13/21 5/14/22 3/2/23 1/1/24
g default
v -0.031736 0.837102 -0.051430
v 0.031736 0.837102 -0.051430
v -0.031736 0.838413 -0.163229
v 0.031736 0.838413 -0.163229
v -0.031736 0.774946 -0.163973
v 0.031736 0.774946 -0.163973
v -0.031736 0.773635 -0.052174
v 0.031736 0.773635 -0.052174
vt 0.375000 0.000000
vt 0.625000 0.000000
vt 0.625000 0.250000
vt 0.375000 0.250000
vt 0.625000 0.500000
vt 0.375000 0.500000
vt 0.625000 0.750000
vt 0.375000 0.750000
vt 0.625000 1.000000
vt 0.375000 1.000000
vt 0.875000 0.000000
vt 0.875000 0.250000
vt 0.125000 0.000000
vt 0.125000 0.250000
vn 0.000000 0.999931 0.011724
vn 0.000000 0.999931 0.011724
vn 0.000000 0.999931 0.011724
vn 0.000000 0.999931 0.011724
vn 0.000000 0.011724 -0.999931
vn 0.000000 0.011724 -0.999931
vn 0.000000 0.011724 -0.999931
vn 0.000000 0.011724 -0.999931
vn 0.000000 -0.999931 -0.011725
vn 0.000000 -0.999931 -0.011725
vn 0.000000 -0.999931 -0.011725
vn 0.000000 -0.999931 -0.011725
vn 0.000000 -0.011724 0.999931
vn 0.000000 -0.011724 0.999931
vn 0.000000 -0.011724 0.999931
vn 0.000000 -0.011724 0.999931
vn 1.000000 0.000000 0.000000
vn 1.000000 0.000000 0.000000
vn 1.000000 0.000000 0.000000
vn 1.000000 0.000000 0.000000
vn -1.000000 0.000000 0.000000
vn -1.000000 0.000000 0.000000
vn -1.000000 0.000000 0.000000
vn -1.000000 0.000000 0.000000
s off
g pCube3 pCube2
usemtl lambert21SG
f 9/15/25 10/16/26 12/17/27 11/18/28
f 11/18/29 12/17/30 14/19/31 13/20/32
f 13/20/33 14/19/34 16/21/35 15/22/36
f 15/22/37 16/21/38 10/23/39 9/24/40
f 10/16/41 16/25/42 14/26/43 12/17/44
f 15/27/45 9/15/46 11/18/47 13/28/48
g default
v -0.045056 -0.750459 0.045056
v 0.045056 -0.750459 0.045056
v -0.045056 0.750459 0.045056
v 0.045056 0.750459 0.045056
v -0.045056 0.750459 -0.045056
v 0.045056 0.750459 -0.045056
v -0.045056 -0.750459 -0.045056
v 0.045056 -0.750459 -0.045056
vt 0.375000 0.000000
vt 0.625000 0.000000
vt 0.375000 0.250000
vt 0.625000 0.250000
vt 0.375000 0.500000
vt 0.625000 0.500000
vt 0.375000 0.750000
vt 0.625000 0.750000
vt 0.375000 1.000000
vt 0.625000 1.000000
vt 0.875000 0.000000
vt 0.875000 0.250000
vt 0.125000 0.000000
vt 0.125000 0.250000
vn 0.000000 0.000000 1.000000
vn 0.000000 0.000000 1.000000
vn 0.000000 0.000000 1.000000
vn 0.000000 0.000000 1.000000
vn 0.000000 1.000000 0.000000
vn 0.000000 1.000000 0.000000
vn 0.000000 1.000000 0.000000
vn 0.000000 1.000000 0.000000
vn 0.000000 0.000000 -1.000000
vn 0.000000 0.000000 -1.000000
vn 0.000000 0.000000 -1.000000
vn 0.000000 0.000000 -1.000000
vn 0.000000 -1.000000 0.000000
vn 0.000000 -1.000000 0.000000
vn 0.000000 -1.000000 0.000000
vn 0.000000 -1.000000 0.000000
vn 1.000000 0.000000 0.000000
vn 1.000000 0.000000 0.000000
vn 1.000000 0.000000 0.000000
vn 1.000000 0.000000 0.000000
vn -1.000000 0.000000 0.000000
vn -1.000000 0.000000 0.000000
vn -1.000000 0.000000 0.000000
vn -1.000000 0.000000 0.000000
s off
g pCube1
usemtl lambert21SG
f 17/29/49 18/30/50 20/32/51 19/31/52
f 19/31/53 20/32/54 22/34/55 21/33/56
f 21/33/57 22/34/58 24/36/59 23/35/60
f 23/35/61 24/36/62 18/38/63 17/37/64
f 18/30/65 24/39/66 22/40/67 20/32/68
f 23/41/69 17/29/70 19/31/71 21/42/72
g default
v -0.164175 0.850144 0.026135
v -0.120585 0.850144 0.026135
v -0.164175 1.021674 0.026135
v -0.120585 1.021674 0.026135
v -0.164175 1.021674 -0.017456
v -0.120585 1.021674 -0.017456
v -0.164175 0.850144 -0.017456
v -0.120585 0.850144 -0.017456
vt 0.375000 0.000000
vt 0.625000 0.000000
vt 0.375000 0.250000
vt 0.625000 0.250000
vt 0.375000 0.500000
vt 0.625000 0.500000
vt 0.375000 0.750000
vt 0.625000 0.750000
vt 0.375000 1.000000
vt 0.625000 1.000000
vt 0.875000 0.000000
vt 0.875000 0.250000
vt 0.125000 0.000000
vt 0.125000 0.250000
vn 0.000000 0.000000 1.000000
vn 0.000000 0.000000 1.000000
vn 0.000000 0.000000 1.000000
vn 0.000000 0.000000 1.000000
vn 0.000000 1.000000 0.000000
vn 0.000000 1.000000 0.000000
vn 0.000000 1.000000 0.000000
vn 0.000000 1.000000 0.000000
vn 0.000000 0.000000 -1.000000
vn 0.000000 0.000000 -1.000000
vn 0.000000 0.000000 -1.000000
vn 0.000000 0.000000 -1.000000
vn 0.000000 -1.000000 0.000000
vn 0.000000 -1.000000 0.000000
vn 0.000000 -1.000000 0.000000
vn 0.000000 -1.000000 0.000000
vn 1.000000 0.000000 0.000000
vn 1.000000 0.000000 0.000000
vn 1.000000 0.000000 0.000000
vn 1.000000 0.000000 0.000000
vn -1.000000 0.000000 0.000000
vn -1.000000 0.000000 0.000000
vn -1.000000 0.000000 0.000000
vn -1.000000 0.000000 0.000000
s off
g pCube8
usemtl lambert21SG
f 25/43/73 26/44/74 28/46/75 27/45/76
f 27/45/77 28/46/78 30/48/79 29/47/80
f 29/47/81 30/48/82 32/50/83 31/49/84
f 31/49/85 32/50/86 26/52/87 25/51/88
f 26/44/89 32/53/90 30/54/91 28/46/92
f 31/55/93 25/43/94 27/45/95 29/56/96
g default
v 0.047766 0.835145 -0.028099
v 0.047769 0.834400 0.035368
v 0.170001 0.841097 -0.027596
v 0.170004 0.840353 0.035871
v 0.170717 0.777647 -0.028338
v 0.170720 0.776903 0.035129
v 0.048482 0.771695 -0.028840
v 0.048485 0.770951 0.034627
vt 0.375000 0.000000
vt 0.625000 0.000000
vt 0.625000 0.250000
vt 0.375000 0.250000
vt 0.625000 0.500000
vt 0.375000 0.500000
vt 0.625000 0.750000
vt 0.375000 0.750000
vt 0.625000 1.000000
vt 0.375000 1.000000
vt 0.875000 0.000000
vt 0.875000 0.250000
vt 0.125000 0.000000
vt 0.125000 0.250000
vn -0.048683 0.998746 0.011714
vn -0.048683 0.998746 0.011714
vn -0.048683 0.998746 0.011714
vn -0.048683 0.998746 0.011714
vn 0.999936 0.011284 0.000091
vn 0.999936 0.011284 0.000091
vn 0.999936 0.011284 0.000091
vn 0.999936 0.011284 0.000091
vn 0.048683 -0.998746 -0.011712
vn 0.048683 -0.998746 -0.011712
vn 0.048683 -0.998746 -0.011712
vn 0.048683 -0.998746 -0.011712
vn -0.999936 -0.011284 -0.000090
vn -0.999936 -0.011284 -0.000090
vn -0.999936 -0.011284 -0.000090
vn -0.999936 -0.011284 -0.000090
vn -0.003540 -0.011724 0.999925
vn -0.003540 -0.011724 0.999925
vn -0.003540 -0.011724 0.999925
vn -0.003540 -0.011724 0.999925
vn 0.003540 0.011724 -0.999925
vn 0.003540 0.011724 -0.999925
vn 0.003540 0.011724 -0.999925
vn 0.003540 0.011724 -0.999925
s off
g pCube7
usemtl lambert21SG
f 33/57/97 34/58/98 36/59/99 35/60/100
f 35/60/101 36/59/102 38/61/103 37/62/104
f 37/62/105 38/61/106 40/63/107 39/64/108
f 39/64/109 40/63/110 34/65/111 33/66/112
f 34/58/113 40/67/114 38/68/115 36/59/116
f 39/69/117 33/57/118 35/60/119 37/70/120
g default
v -0.049222 0.835144 -0.028058
v -0.049151 0.834400 0.035409
v -0.171457 0.841100 -0.027852
v -0.171386 0.840356 0.035616
v -0.172173 0.777650 -0.028595
v -0.172102 0.776906 0.034872
v -0.049939 0.771694 -0.028802
v -0.049867 0.770950 0.034666
vt 0.375000 0.000000
vt 0.375000 0.250000
vt 0.625000 0.250000
vt 0.625000 0.000000
vt 0.375000 0.500000
vt 0.625000 0.500000
vt 0.375000 0.750000
vt 0.625000 0.750000
vt 0.375000 1.000000
vt 0.625000 1.000000
vt 0.875000 0.250000
vt 0.875000 0.000000
vt 0.125000 0.000000
vt 0.125000 0.250000
vn 0.048683 0.998746 0.011657
vn 0.048683 0.998746 0.011657
vn 0.048683 0.998746 0.011657
vn 0.048683 0.998746 0.011657
vn -0.999936 0.011271 0.001254
vn -0.999936 0.011271 0.001254
vn -0.999936 0.011271 0.001254
vn -0.999936 0.011271 0.001254
vn -0.048683 -0.998746 -0.011656
vn -0.048683 -0.998746 -0.011656
vn -0.048683 -0.998746 -0.011656
vn -0.048683 -0.998746 -0.011656
vn 0.999936 -0.011270 -0.001253
vn 0.999936 -0.011270 -0.001253
vn 0.999936 -0.011270 -0.001253
vn 0.999936 -0.011270 -0.001253
vn 0.001121 -0.011724 0.999931
vn 0.001121 -0.011724 0.999931
vn 0.001121 -0.011724 0.999931
vn 0.001121 -0.011724 0.999931
vn -0.001121 0.011724 -0.999931
vn -0.001121 0.011724 -0.999931
vn -0.001121 0.011724 -0.999931
vn -0.001121 0.011724 -0.999931
s off
g pCube6 pCube5
usemtl lambert21SG
f 41/71/121 43/72/122 44/73/123 42/74/124
f 43/72/125 45/75/126 46/76/127 44/73/128
f 45/75/129 47/77/130 48/78/131 46/76/132
f 47/77/133 41/79/134 42/80/135 48/78/136
f 42/74/137 44/73/138 46/81/139 48/82/140
f 47/83/141 45/84/142 43/72/143 41/71/144
g default
v -0.020967 0.850144 0.153431
v 0.022623 0.850144 0.153431
v -0.020967 1.021674 0.153431
v 0.022623 1.021674 0.153431
v -0.020967 1.021674 0.109840
v 0.022623 1.021674 0.109840
v -0.020967 0.850144 0.109840
v 0.022623 0.850144 0.109840
vt 0.375000 0.000000
vt 0.625000 0.000000
vt 0.375000 0.250000
vt 0.625000 0.250000
vt 0.375000 0.500000
vt 0.625000 0.500000
vt 0.375000 0.750000
vt 0.625000 0.750000
vt 0.375000 1.000000
vt 0.625000 1.000000
vt 0.875000 0.000000
vt 0.875000 0.250000
vt 0.125000 0.000000
vt 0.125000 0.250000
vn 0.000000 0.000000 1.000000
vn 0.000000 0.000000 1.000000
vn 0.000000 0.000000 1.000000
vn 0.000000 0.000000 1.000000
vn 0.000000 1.000000 0.000000
vn 0.000000 1.000000 0.000000
vn 0.000000 1.000000 0.000000
vn 0.000000 1.000000 0.000000
vn 0.000000 0.000000 -1.000000
vn 0.000000 0.000000 -1.000000
vn 0.000000 0.000000 -1.000000
vn 0.000000 0.000000 -1.000000
vn 0.000000 -1.000000 0.000000
vn 0.000000 -1.000000 0.000000
vn 0.000000 -1.000000 0.000000
vn 0.000000 -1.000000 0.000000
vn 1.000000 0.000000 0.000000
vn 1.000000 0.000000 0.000000
vn 1.000000 0.000000 0.000000
vn 1.000000 0.000000 0.000000
vn -1.000000 0.000000 0.000000
vn -1.000000 0.000000 0.000000
vn -1.000000 0.000000 0.000000
vn -1.000000 0.000000 0.000000
s off
g pCube10
usemtl lambert21SG
f 49/85/145 50/86/146 52/88/147 51/87/148
f 51/87/149 52/88/150 54/90/151 53/89/152
f 53/89/153 54/90/154 56/92/155 55/91/156
f 55/91/157 56/92/158 50/94/159 49/93/160
f 50/86/161 56/95/162 54/96/163 52/88/164
f 55/97/165 49/85/166 51/87/167 53/98/168
g default
v 0.120071 0.850144 0.026135
v 0.163661 0.850144 0.026135
v 0.120071 1.021674 0.026135
v 0.163661 1.021674 0.026135
v 0.120071 1.021674 -0.017456
v 0.163661 1.021674 -0.017456
v 0.120071 0.850144 -0.017456
v 0.163661 0.850144 -0.017456
vt 0.375000 0.000000
vt 0.625000 0.000000
vt 0.375000 0.250000
vt 0.625000 0.250000
vt 0.375000 0.500000
vt 0.625000 0.500000
vt 0.375000 0.750000
vt 0.625000 0.750000
vt 0.375000 1.000000
vt 0.625000 1.000000
vt 0.875000 0.000000
vt 0.875000 0.250000
vt 0.125000 0.000000
vt 0.125000 0.250000
vn 0.000000 0.000000 1.000000
vn 0.000000 0.000000 1.000000
vn 0.000000 0.000000 1.000000
vn 0.000000 0.000000 1.000000
vn 0.000000 1.000000 0.000000
vn 0.000000 1.000000 0.000000
vn 0.000000 1.000000 0.000000
vn 0.000000 1.000000 0.000000
vn 0.000000 0.000000 -1.000000
vn 0.000000 0.000000 -1.000000
vn 0.000000 0.000000 -1.000000
vn 0.000000 0.000000 -1.000000
vn 0.000000 -1.000000 0.000000
vn 0.000000 -1.000000 0.000000
vn 0.000000 -1.000000 0.000000
vn 0.000000 -1.000000 0.000000
vn 1.000000 0.000000 0.000000
vn 1.000000 0.000000 0.000000
vn 1.000000 0.000000 0.000000
vn 1.000000 0.000000 0.000000
vn -1.000000 0.000000 0.000000
vn -1.000000 0.000000 0.000000
vn -1.000000 0.000000 0.000000
vn -1.000000 0.000000 0.000000
s off
g pCube9
usemtl lambert21SG
f 57/99/169 58/100/170 60/102/171 59/101/172
f 59/101/173 60/102/174 62/104/175 61/103/176
f 61/103/177 62/104/178 64/106/179 63/105/180
f 63/105/181 64/106/182 58/108/183 57/107/184
f 58/100/185 64/109/186 62/110/187 60/102/188
f 63/111/189 57/99/190 59/101/191 61/112/192
g default
v -0.020967 0.850144 -0.114903
v 0.022623 0.850144 -0.114903
v -0.020967 1.021674 -0.114903
v 0.022623 1.021674 -0.114903
v -0.020967 1.021674 -0.158494
v 0.022623 1.021674 -0.158494
v -0.020967 0.850144 -0.158494
v 0.022623 0.850144 -0.158494
vt 0.375000 0.000000
vt 0.625000 0.000000
vt 0.375000 0.250000
vt 0.625000 0.250000
vt 0.375000 0.500000
vt 0.625000 0.500000
vt 0.375000 0.750000
vt 0.625000 0.750000
vt 0.375000 1.000000
vt 0.625000 1.000000
vt 0.875000 0.000000
vt 0.875000 0.250000
vt 0.125000 0.000000
vt 0.125000 0.250000
vn 0.000000 0.000000 1.000000
vn 0.000000 0.000000 1.000000
vn 0.000000 0.000000 1.000000
vn 0.000000 0.000000 1.000000
vn 0.000000 1.000000 0.000000
vn 0.000000 1.000000 0.000000
vn 0.000000 1.000000 0.000000
vn 0.000000 1.000000 0.000000
vn 0.000000 0.000000 -1.000000
vn 0.000000 0.000000 -1.000000
vn 0.000000 0.000000 -1.000000
vn 0.000000 0.000000 -1.000000
vn 0.000000 -1.000000 0.000000
vn 0.000000 -1.000000 0.000000
vn 0.000000 -1.000000 0.000000
vn 0.000000 -1.000000 0.000000
vn 1.000000 0.000000 0.000000
vn 1.000000 0.000000 0.000000
vn 1.000000 0.000000 0.000000
vn 1.000000 0.000000 0.000000
vn -1.000000 0.000000 0.000000
vn -1.000000 0.000000 0.000000
vn -1.000000 0.000000 0.000000
vn -1.000000 0.000000 0.000000
s off
g pCube11
usemtl lambert21SG
f 65/113/193 66/114/194 68/116/195 67/115/196
f 67/115/197 68/116/198 70/118/199 69/117/200
f 69/117/201 70/118/202 72/120/203 71/119/204
f 71/119/205 72/120/206 66/122/207 65/121/208
f 66/114/209 72/123/210 70/124/211 68/116/212
f 71/125/213 65/113/214 67/115/215 69/126/216
