# This file uses centimeters as units for non-parametric coordinates.

mtllib Pinche1.mtl
g default
v 0.404509 -0.000484 -0.293893
v 0.154509 -0.000484 -0.475529
v 0.000000 -0.000484 -0.500000
v -0.293893 -0.000484 -0.404509
v -0.475528 -0.000484 -0.154509
v -0.475528 -0.000484 0.154509
v -0.293893 -0.000484 0.404509
v -0.000000 -0.000484 0.500000
v 0.293893 -0.000484 0.404509
v 0.475528 -0.000484 0.154509
v 0.500000 -0.000484 0.000000
v -0.624514 0.999516 -0.596431
v -0.824514 0.999516 -0.741740
v -0.948121 0.999516 -0.761317
v -1.183235 0.999516 -0.684924
v -1.328544 0.999516 -0.484924
v -1.328544 0.999516 -0.237710
v -1.183235 0.999516 -0.037710
v -0.948121 0.999516 0.038683
v -0.713007 0.999516 -0.037710
v -0.567698 0.999516 -0.237710
v -0.548121 0.999516 -0.361317
v -1.095564 1.999516 -0.176336
v -1.245564 1.999516 -0.285317
v -1.338269 1.999516 -0.300000
v -1.514605 1.999516 -0.242705
v -1.623586 1.999516 -0.092705
v -1.623586 1.999516 0.092705
v -1.514605 1.999516 0.242705
v -1.338269 1.999516 0.300000
v -1.161934 1.999516 0.242705
v -1.052952 1.999516 0.092705
v -1.038269 1.999516 0.000000
v -1.363042 2.999516 -0.352464
v -1.463042 2.999516 -0.425119
v -1.524846 2.999516 -0.434907
v -1.642403 2.999516 -0.396711
v -1.715057 2.999516 -0.296711
v -1.715057 2.999516 -0.173104
v -1.642403 2.999516 -0.073104
v -1.524846 2.999516 -0.034907
v -1.407289 2.999516 -0.073104
v -1.334635 2.999516 -0.173104
v -1.324846 2.999516 -0.234907
v -1.195481 3.999516 -0.025891
v -1.245481 3.999516 -0.062219
v -1.276383 3.999516 -0.067113
v -1.335161 3.999516 -0.048015
v -1.371488 3.999516 0.001985
v -1.371488 3.999516 0.063789
v -1.335161 3.999516 0.113789
v -1.276383 3.999516 0.132887
v -1.217604 3.999516 0.113789
v -1.181277 3.999516 0.063789
v -1.176383 3.999516 0.032887
v -0.870431 4.547497 -0.300970
vt 0.179295 0.255698
vt 0.131365 0.268202
vt 0.844571 0.059522
vt 0.071084 0.044950
vt 0.105723 0.041805
vt 0.216369 0.248012
vt 0.262459 0.240862
vt 0.175148 0.028050
vt 0.316973 0.197524
vt 0.239424 0.001992
vt 0.442387 0.006759
vt 0.363063 0.194845
vt 0.408066 0.195105
vt 0.500084 0.003847
vt 0.557781 0.006700
vt 0.602325 0.330085
vt 0.657105 0.324215
vt 0.620321 0.010064
vt 0.700364 0.003847
vt 0.719151 0.327317
vt 0.740784 0.010095
vt 0.750435 0.332804
vt 0.173141 0.490717
vt 0.138404 0.502024
vt 0.192055 0.486387
vt 0.231084 0.481291
vt 0.418730 0.390879
vt 0.452737 0.387360
vt 0.486933 0.387685
vt 0.612823 0.529710
vt 0.641105 0.531133
vt 0.668955 0.532826
vt 0.683091 0.533773
vt 0.237222 0.667571
vt 0.217665 0.672531
vt 0.247043 0.665509
vt 0.266631 0.662855
vt 0.391389 0.573370
vt 0.412955 0.570351
vt 0.434730 0.570453
vt 0.638545 0.686198
vt 0.654947 0.686800
vt 0.672553 0.687932
vt 0.681388 0.688595
vt 0.211007 0.847987
vt 0.201810 0.849818
vt 0.215811 0.847140
vt 0.225498 0.845879
vt 0.486978 0.761360
vt 0.497826 0.759950
vt 0.508803 0.759754
vt 0.645271 0.820877
vt 0.651877 0.821152
vt 0.658650 0.821603
vt 0.662048 0.821849
vt 0.665596 0.942011
vt 0.234783 0.845429
vt 0.269085 0.998008
vt 0.668681 0.822330
vt 0.286416 0.662613
vt 0.697724 0.689872
vt 0.267899 0.481786
vt 0.712058 0.536431
vt 0.310383 0.236394
vt 0.804153 0.347720
vt 0.384585 0.004288
vt 0.001686 0.046656
vt 0.519676 0.760757
vt 0.439758 0.942780
vt 0.456596 0.572904
vt 0.520762 0.390253
vt 0.453767 0.197999
vt 0.546947 0.040823
vn 0.553025 0.338791 -0.761173
vn 0.553025 0.338791 -0.761173
vn 0.553024 0.338791 -0.761173
vn 0.553024 0.338791 -0.761173
vn 0.155500 -0.109126 -0.981790
vn 0.155500 -0.109126 -0.981790
vn 0.155500 -0.109126 -0.981790
vn 0.155500 -0.109126 -0.981790
vn -0.271734 -0.476179 -0.836310
vn -0.271734 -0.476179 -0.836310
vn -0.271734 -0.476179 -0.836310
vn -0.271734 -0.476179 -0.836310
vn -0.606041 -0.662449 -0.440314
vn -0.606041 -0.662449 -0.440314
vn -0.606041 -0.662449 -0.440314
vn -0.606041 -0.662449 -0.440314
vn -0.760806 -0.648979 0.000000
vn -0.760806 -0.648979 0.000000
vn -0.760806 -0.648979 0.000000
vn -0.760806 -0.648979 0.000000
vn -0.735106 -0.417578 0.534086
vn -0.735106 -0.417578 0.534086
vn -0.735106 -0.417578 0.534086
vn -0.735106 -0.417578 0.534086
vn -0.305786 0.144229 0.941113
vn -0.305786 0.144229 0.941113
vn -0.305786 0.144229 0.941113
vn -0.305786 0.144229 0.941113
vn 0.249384 0.590519 0.767525
vn 0.249384 0.590519 0.767525
vn 0.249384 0.590519 0.767525
vn 0.249384 0.590519 0.767525
vn 0.551154 0.732038 0.400437
vn 0.551154 0.732038 0.400437
vn 0.551154 0.732038 0.400437
vn 0.551154 0.732038 0.400437
vn 0.667129 0.737410 0.105663
vn 0.667129 0.737410 0.105663
vn 0.667129 0.737410 0.105663
vn 0.667129 0.737410 0.105663
vn 0.712142 0.662807 -0.231388
vn 0.712142 0.662807 -0.231388
vn 0.712142 0.662807 -0.231388
vn 0.712142 0.662807 -0.231388
vn 0.500289 0.524934 -0.688589
vn 0.500289 0.524934 -0.688589
vn 0.500289 0.524934 -0.688589
vn 0.500289 0.524934 -0.688589
vn 0.138980 0.459022 -0.877487
vn 0.138980 0.459022 -0.877487
vn 0.138980 0.459022 -0.877487
vn 0.138980 0.459022 -0.877487
vn -0.294471 0.303199 -0.906288
vn -0.294471 0.303199 -0.906288
vn -0.294471 0.303199 -0.906288
vn -0.294471 0.303199 -0.906288
vn -0.808991 -0.008154 -0.587765
vn -0.808991 -0.008154 -0.587765
vn -0.808991 -0.008154 -0.587765
vn -0.808991 -0.008154 -0.587765
vn -0.959125 -0.282983 -0.000000
vn -0.959125 -0.282983 -0.000000
vn -0.959125 -0.282983 -0.000000
vn -0.959125 -0.282983 -0.000000
vn -0.742433 -0.397279 0.539410
vn -0.742433 -0.397279 0.539410
vn -0.742433 -0.397279 0.539410
vn -0.742433 -0.397279 0.539410
vn -0.289901 -0.346258 0.892223
vn -0.289901 -0.346258 0.892223
vn -0.289901 -0.346258 0.892223
vn -0.289901 -0.346258 0.892223
vn 0.306518 -0.126930 0.943364
vn 0.306518 -0.126930 0.943364
vn 0.306518 -0.126930 0.943364
vn 0.306518 -0.126930 0.943364
vn 0.793555 0.194574 0.576551
vn 0.793555 0.194574 0.576551
vn 0.793555 0.194574 0.576551
vn 0.793555 0.194574 0.576551
vn 0.908151 0.393158 0.143837
vn 0.908151 0.393157 0.143837
vn 0.908151 0.393157 0.143837
vn 0.908151 0.393157 0.143837
vn 0.823475 0.500300 -0.267562
vn 0.823475 0.500300 -0.267562
vn 0.823475 0.500300 -0.267562
vn 0.823475 0.500300 -0.267562
vn 0.587721 0.014727 -0.808929
vn 0.587721 0.014727 -0.808929
vn 0.587721 0.014727 -0.808929
vn 0.587721 0.014727 -0.808930
vn 0.155594 -0.103501 -0.982384
vn 0.155594 -0.103501 -0.982384
vn 0.155594 -0.103501 -0.982384
vn 0.155594 -0.103501 -0.982384
vn -0.303809 -0.182826 -0.935027
vn -0.303809 -0.182826 -0.935027
vn -0.303809 -0.182826 -0.935027
vn -0.303809 -0.182826 -0.935027
vn -0.794223 -0.190367 -0.577035
vn -0.794223 -0.190367 -0.577035
vn -0.794223 -0.190367 -0.577035
vn -0.794223 -0.190367 -0.577035
vn -0.995843 -0.091091 -0.000000
vn -0.995843 -0.091091 -0.000000
vn -0.995843 -0.091091 -0.000000
vn -0.995843 -0.091091 -0.000000
vn -0.806295 0.081961 0.585808
vn -0.806295 0.081961 0.585808
vn -0.806295 0.081961 0.585808
vn -0.806295 0.081961 0.585808
vn -0.299011 0.252414 0.920261
vn -0.299011 0.252414 0.920261
vn -0.299011 0.252414 0.920261
vn -0.299011 0.252414 0.920261
vn 0.289230 0.352084 0.890159
vn 0.289230 0.352084 0.890159
vn 0.289230 0.352084 0.890159
vn 0.289230 0.352084 0.890159
vn 0.755217 0.358580 0.548697
vn 0.755217 0.358580 0.548697
vn 0.755217 0.358580 0.548697
vn 0.755217 0.358580 0.548697
vn 0.940754 0.304600 0.149002
vn 0.940754 0.304600 0.149002
vn 0.940754 0.304600 0.149002
vn 0.940754 0.304600 0.149002
vn 0.932595 0.196079 -0.303018
vn 0.932595 0.196079 -0.303018
vn 0.932595 0.196079 -0.303018
vn 0.932595 0.196079 -0.303018
vn 0.579877 0.163484 -0.798133
vn 0.579877 0.163484 -0.798133
vn 0.579877 0.163484 -0.798133
vn 0.579877 0.163484 -0.798133
vn 0.148801 0.308568 -0.939491
vn 0.148801 0.308568 -0.939491
vn 0.148801 0.308568 -0.939491
vn 0.148801 0.308568 -0.939491
vn -0.284237 0.392366 -0.874791
vn -0.284237 0.392366 -0.874791
vn -0.284237 0.392366 -0.874791
vn -0.284237 0.392366 -0.874791
vn -0.736786 0.413030 -0.535306
vn -0.736786 0.413030 -0.535306
vn -0.736786 0.413030 -0.535306
vn -0.736786 0.413031 -0.535306
vn -0.945739 0.324926 0.000000
vn -0.945739 0.324926 0.000000
vn -0.945739 0.324926 0.000000
vn -0.945739 0.324926 0.000000
vn -0.801344 0.137396 0.582211
vn -0.801344 0.137396 0.582211
vn -0.801344 0.137396 0.582211
vn -0.801344 0.137396 0.582211
vn -0.307963 -0.082520 0.947813
vn -0.307963 -0.082520 0.947813
vn -0.307963 -0.082520 0.947813
vn -0.307963 -0.082520 0.947813
vn 0.300731 -0.230023 0.925554
vn 0.300731 -0.230023 0.925554
vn 0.300731 -0.230023 0.925554
vn 0.300731 -0.230023 0.925554
vn 0.782350 -0.254632 0.568411
vn 0.782350 -0.254632 0.568411
vn 0.782350 -0.254632 0.568411
vn 0.782350 -0.254632 0.568411
vn 0.970590 -0.185264 0.153727
vn 0.970590 -0.185264 0.153727
vn 0.970590 -0.185264 0.153727
vn 0.970590 -0.185264 0.153727
vn 0.949437 -0.058345 -0.308490
vn 0.949437 -0.058345 -0.308490
vn 0.949437 -0.058345 -0.308490
vn 0.949436 -0.058345 -0.308490
vn 0.469150 -0.602437 -0.645730
vn 0.469150 -0.602437 -0.645730
vn 0.469150 -0.602437 -0.645730
vn 0.137797 -0.473369 -0.870019
vn 0.137797 -0.473369 -0.870019
vn 0.137797 -0.473369 -0.870020
vn -0.304290 -0.174244 -0.936508
vn -0.304290 -0.174244 -0.936508
vn -0.304290 -0.174244 -0.936508
vn -0.747285 0.383129 -0.542935
vn -0.747285 0.383129 -0.542935
vn -0.747285 0.383129 -0.542935
vn -0.737997 0.674804 0.000000
vn -0.737997 0.674804 0.000000
vn -0.737997 0.674804 0.000000
vn -0.535884 0.749159 0.389344
vn -0.535884 0.749159 0.389344
vn -0.535884 0.749159 0.389344
vn -0.220493 0.700624 0.678608
vn -0.220493 0.700624 0.678608
vn -0.220493 0.700624 0.678608
vn 0.273708 0.464182 0.842389
vn 0.273708 0.464182 0.842389
vn 0.273708 0.464182 0.842389
vn 0.807172 -0.067514 0.586443
vn 0.807172 -0.067514 0.586443
vn 0.807172 -0.067514 0.586443
vn 0.898617 -0.415005 0.142331
vn 0.898617 -0.415005 0.142331
vn 0.898617 -0.415005 0.142331
vn 0.772084 -0.583912 -0.250865
vn 0.772084 -0.583912 -0.250865
vn 0.772084 -0.583912 -0.250865
s off
g pCone1
usemtl initialShadingGroup
f 13/1/1 12/2/2 1/67/3 2/4/4
f 2/4/5 3/5/6 14/6/7 13/1/8
f 15/7/9 14/6/10 3/5/11 4/8/12
f 16/64/13 15/7/14 4/8/15 5/10/16
f 5/66/17 6/11/18 17/12/19 16/9/20
f 18/13/21 17/12/22 6/11/23 7/14/24
f 7/14/25 8/15/26 19/72/27 18/13/28
f 20/17/29 19/16/30 8/73/31 9/18/32
f 20/17/33 9/18/34 10/19/35 21/20/36
f 10/19/37 11/21/38 22/22/39 21/20/40
f 12/65/41 22/22/42 11/21/43 1/3/44
f 24/23/45 23/24/46 12/2/47 13/1/48
f 13/1/49 14/6/50 25/25/51 24/23/52
f 26/26/53 25/25/54 14/6/55 15/7/56
f 27/62/57 26/26/58 15/7/59 16/64/60
f 16/9/61 17/12/62 28/28/63 27/27/64
f 29/29/65 28/28/66 17/12/67 18/13/68
f 18/13/69 19/72/70 30/71/71 29/29/72
f 30/30/73 19/16/74 20/17/75 31/31/76
f 31/31/77 20/17/78 21/20/79 32/32/80
f 21/20/81 22/22/82 33/33/83 32/32/84
f 23/63/85 33/33/86 22/22/87 12/65/88
f 35/34/89 34/35/90 23/24/91 24/23/92
f 24/23/93 25/25/94 36/36/95 35/34/96
f 36/36/97 25/25/98 26/26/99 37/37/100
f 38/60/101 37/37/102 26/26/103 27/62/104
f 27/27/105 28/28/106 39/39/107 38/38/108
f 40/40/109 39/39/110 28/28/111 29/29/112
f 29/29/113 30/71/114 41/70/115 40/40/116
f 42/42/117 41/41/118 30/30/119 31/31/120
f 43/43/121 42/42/122 31/31/123 32/32/124
f 32/32/125 33/33/126 44/44/127 43/43/128
f 34/61/129 44/44/130 33/33/131 23/63/132
f 46/45/133 45/46/134 34/35/135 35/34/136
f 35/34/137 36/36/138 47/47/139 46/45/140
f 48/48/141 47/47/142 36/36/143 37/37/144
f 49/57/145 48/48/146 37/37/147 38/60/148
f 38/38/149 39/39/150 50/50/151 49/49/152
f 51/51/153 50/50/154 39/39/155 40/40/156
f 40/40/157 41/70/158 52/68/159 51/51/160
f 53/53/161 52/52/162 41/41/163 42/42/164
f 54/54/165 53/53/166 42/42/167 43/43/168
f 43/43/169 44/44/170 55/55/171 54/54/172
f 45/59/173 55/55/174 44/44/175 34/61/176
f 56/58/177 45/46/178 46/45/179
f 46/45/180 47/47/181 56/58/182
f 56/58/183 47/47/184 48/48/185
f 56/58/186 48/48/187 49/57/188
f 49/49/189 50/50/190 56/69/191
f 56/69/192 50/50/193 51/51/194
f 51/51/195 52/68/196 56/69/197
f 56/56/198 52/52/199 53/53/200
f 56/56/201 53/53/202 54/54/203
f 54/54/204 55/55/205 56/56/206
f 56/56/207 55/55/208 45/59/209
