# This file uses centimeters as units for non-parametric coordinates.

mtllib plano_pasto.mtl
g default
v 0.426822 -0.000498 0.252954
v 0.209260 -0.000498 0.129801
v -0.008302 -0.000498 0.006647
v -0.225864 -0.000498 -0.116506
v -0.443426 -0.000498 -0.239660
v 0.426822 0.249502 0.252954
v 0.209260 0.249502 0.129801
v -0.008302 0.249502 0.006647
v -0.225864 0.249502 -0.116506
v -0.443426 0.249502 -0.239660
v 0.426822 0.499502 0.252954
v 0.209260 0.499502 0.129801
v -0.008302 0.499502 0.006647
v -0.225864 0.499502 -0.116506
v -0.443426 0.499502 -0.239660
v 0.426822 0.749502 0.252954
v 0.209260 0.749502 0.129801
v -0.008302 0.749502 0.006647
v -0.225864 0.749502 -0.116506
v -0.443426 0.749502 -0.239660
v 0.426822 0.999502 0.252954
v 0.209260 0.999502 0.129801
v -0.008302 0.999502 0.006647
v -0.225864 0.999502 -0.116506
v -0.443426 0.999502 -0.239660
vt 0.000000 0.000000
vt 0.250000 0.000000
vt 0.500000 0.000000
vt 0.750000 0.000000
vt 1.000000 0.000000
vt 0.000000 0.250000
vt 0.250000 0.250000
vt 0.500000 0.250000
vt 0.750000 0.250000
vt 1.000000 0.250000
vt 0.000000 0.500000
vt 0.250000 0.500000
vt 0.500000 0.500000
vt 0.750000 0.500000
vt 1.000000 0.500000
vt 0.000000 0.750000
vt 0.250000 0.750000
vt 0.500000 0.750000
vt 0.750000 0.750000
vt 1.000000 0.750000
vt 0.000000 1.000000
vt 0.250000 1.000000
vt 0.500000 1.000000
vt 0.750000 1.000000
vt 1.000000 1.000000
vn 0.492614 0.000000 -0.870248
vn 0.492614 0.000000 -0.870248
vn 0.492614 0.000000 -0.870248
vn 0.492614 0.000000 -0.870248
vn 0.492614 0.000000 -0.870248
vn 0.492614 0.000000 -0.870248
vn 0.492614 0.000000 -0.870248
vn 0.492614 0.000000 -0.870248
vn 0.492614 0.000000 -0.870248
vn 0.492614 0.000000 -0.870248
vn 0.492614 0.000000 -0.870248
vn 0.492614 0.000000 -0.870248
vn 0.492614 0.000000 -0.870248
vn 0.492614 0.000000 -0.870248
vn 0.492614 0.000000 -0.870248
vn 0.492614 0.000000 -0.870248
vn 0.492614 0.000000 -0.870248
vn 0.492614 0.000000 -0.870248
vn 0.492614 0.000000 -0.870248
vn 0.492614 0.000000 -0.870248
vn 0.492614 0.000000 -0.870248
vn 0.492614 0.000000 -0.870248
vn 0.492614 0.000000 -0.870248
vn 0.492614 0.000000 -0.870248
vn 0.492614 0.000000 -0.870248
s 1
g pPlane1
usemtl initialShadingGroup
f 1/1/1 2/2/2 7/7/3 6/6/4
f 2/2/2 3/3/5 8/8/6 7/7/3
f 3/3/5 4/4/7 9/9/8 8/8/6
f 4/4/7 5/5/9 10/10/10 9/9/8
f 6/6/4 7/7/3 12/12/11 11/11/12
f 7/7/3 8/8/6 13/13/13 12/12/11
f 8/8/6 9/9/8 14/14/14 13/13/13
f 9/9/8 10/10/10 15/15/15 14/14/14
f 11/11/12 12/12/11 17/17/16 16/16/17
f 12/12/11 13/13/13 18/18/18 17/17/16
f 13/13/13 14/14/14 19/19/19 18/18/18
f 14/14/14 15/15/15 20/20/20 19/19/19
f 16/16/17 17/17/16 22/22/21 21/21/22
f 17/17/16 18/18/18 23/23/23 22/22/21
f 18/18/18 19/19/19 24/24/24 23/23/23
f 19/19/19 20/20/20 25/25/25 24/24/24
g default
v -0.500000 0.000844 0.000000
v -0.250000 0.000844 0.000000
v 0.000000 0.000844 0.000000
v 0.250000 0.000844 0.000000
v 0.500000 0.000844 0.000000
v -0.500000 0.250844 0.000000
v -0.250000 0.250844 0.000000
v 0.000000 0.250844 0.000000
v 0.250000 0.250844 0.000000
v 0.500000 0.250844 0.000000
v -0.500000 0.500844 0.000000
v -0.250000 0.500844 0.000000
v 0.000000 0.500844 0.000000
v 0.250000 0.500844 0.000000
v 0.500000 0.500844 0.000000
v -0.500000 0.750844 0.000000
v -0.250000 0.750844 0.000000
v 0.000000 0.750844 0.000000
v 0.250000 0.750844 0.000000
v 0.500000 0.750844 0.000000
v -0.500000 1.000844 0.000000
v -0.250000 1.000844 0.000000
v 0.000000 1.000844 0.000000
v 0.250000 1.000844 0.000000
v 0.500000 1.000844 0.000000
vt 0.000000 0.000000
vt 0.250000 0.000000
vt 0.500000 0.000000
vt 0.750000 0.000000
vt 1.000000 0.000000
vt 0.000000 0.250000
vt 0.250000 0.250000
vt 0.500000 0.250000
vt 0.750000 0.250000
vt 1.000000 0.250000
vt 0.000000 0.500000
vt 0.250000 0.500000
vt 0.500000 0.500000
vt 0.750000 0.500000
vt 1.000000 0.500000
vt 0.000000 0.750000
vt 0.250000 0.750000
vt 0.500000 0.750000
vt 0.750000 0.750000
vt 1.000000 0.750000
vt 0.000000 1.000000
vt 0.250000 1.000000
vt 0.500000 1.000000
vt 0.750000 1.000000
vt 1.000000 1.000000
vn 0.000000 0.000000 1.000000
vn 0.000000 0.000000 1.000000
vn 0.000000 0.000000 1.000000
vn 0.000000 0.000000 1.000000
vn 0.000000 0.000000 1.000000
vn 0.000000 0.000000 1.000000
vn 0.000000 0.000000 1.000000
vn 0.000000 0.000000 1.000000
vn 0.000000 0.000000 1.000000
vn 0.000000 0.000000 1.000000
vn 0.000000 0.000000 1.000000
vn 0.000000 0.000000 1.000000
vn 0.000000 0.000000 1.000000
vn 0.000000 0.000000 1.000000
vn 0.000000 0.000000 1.000000
vn 0.000000 0.000000 1.000000
vn 0.000000 0.000000 1.000000
vn 0.000000 0.000000 1.000000
vn 0.000000 0.000000 1.000000
vn 0.000000 0.000000 1.000000
vn 0.000000 0.000000 1.000000
vn 0.000000 0.000000 1.000000
vn 0.000000 0.000000 1.000000
vn 0.000000 0.000000 1.000000
vn 0.000000 0.000000 1.000000
s 1
g pPlane2
usemtl initialShadingGroup
f 26/26/26 27/27/27 32/32/28 31/31/29
f 27/27/27 28/28/30 33/33/31 32/32/28
f 28/28/30 29/29/32 34/34/33 33/33/31
f 29/29/32 30/30/34 35/35/35 34/34/33
f 31/31/29 32/32/28 37/37/36 36/36/37
f 32/32/28 33/33/31 38/38/38 37/37/36
f 33/33/31 34/34/33 39/39/39 38/38/38
f 34/34/33 35/35/35 40/40/40 39/39/39
f 36/36/37 37/37/36 42/42/41 41/41/42
f 37/37/36 38/38/38 43/43/43 42/42/41
f 38/38/38 39/39/39 44/44/44 43/43/43
f 39/39/39 40/40/40 45/45/45 44/44/44
f 41/41/42 42/42/41 47/47/46 46/46/47
f 42/42/41 43/43/43 48/48/48 47/47/46
f 43/43/43 44/44/44 49/49/49 48/48/48
f 44/44/44 45/45/45 50/50/50 49/49/49
g default
v -0.260152 0.001033 0.422645
v -0.130293 0.001033 0.209018
v -0.000433 0.001033 -0.004608
v 0.129427 0.001033 -0.218235
v 0.259287 0.001033 -0.431862
v -0.260152 0.251033 0.422645
v -0.130293 0.251033 0.209018
v -0.000433 0.251033 -0.004608
v 0.129427 0.251033 -0.218235
v 0.259287 0.251033 -0.431862
v -0.260152 0.501033 0.422645
v -0.130293 0.501033 0.209018
v -0.000433 0.501033 -0.004608
v 0.129427 0.501033 -0.218235
v 0.259287 0.501033 -0.431862
v -0.260152 0.751033 0.422645
v -0.130293 0.751033 0.209018
v -0.000433 0.751033 -0.004608
v 0.129427 0.751033 -0.218235
v 0.259287 0.751033 -0.431862
v -0.260152 1.001033 0.422645
v -0.130293 1.001033 0.209018
v -0.000433 1.001033 -0.004608
v 0.129427 1.001033 -0.218235
v 0.259287 1.001033 -0.431862
vt 0.000000 0.000000
vt 0.250000 0.000000
vt 0.500000 0.000000
vt 0.750000 0.000000
vt 1.000000 0.000000
vt 0.000000 0.250000
vt 0.250000 0.250000
vt 0.500000 0.250000
vt 0.750000 0.250000
vt 1.000000 0.250000
vt 0.000000 0.500000
vt 0.250000 0.500000
vt 0.500000 0.500000
vt 0.750000 0.500000
vt 1.000000 0.500000
vt 0.000000 0.750000
vt 0.250000 0.750000
vt 0.500000 0.750000
vt 0.750000 0.750000
vt 1.000000 0.750000
vt 0.000000 1.000000
vt 0.250000 1.000000
vt 0.500000 1.000000
vt 0.750000 1.000000
vt 1.000000 1.000000
vn 0.854508 0.000000 0.519439
vn 0.854508 0.000000 0.519439
vn 0.854508 0.000000 0.519439
vn 0.854508 0.000000 0.519439
vn 0.854508 0.000000 0.519439
vn 0.854508 0.000000 0.519439
vn 0.854508 0.000000 0.519439
vn 0.854508 0.000000 0.519439
vn 0.854508 0.000000 0.519439
vn 0.854508 0.000000 0.519439
vn 0.854508 0.000000 0.519439
vn 0.854508 0.000000 0.519439
vn 0.854508 0.000000 0.519439
vn 0.854508 0.000000 0.519439
vn 0.854508 0.000000 0.519439
vn 0.854508 0.000000 0.519439
vn 0.854508 0.000000 0.519439
vn 0.854508 0.000000 0.519439
vn 0.854508 0.000000 0.519439
vn 0.854508 0.000000 0.519439
vn 0.854508 0.000000 0.519439
vn 0.854508 0.000000 0.519439
vn 0.854508 0.000000 0.519439
vn 0.854508 0.000000 0.519439
vn 0.854508 0.000000 0.519439
s 1
g pPlane4
usemtl initialShadingGroup
f 51/51/51 52/52/52 57/57/53 56/56/54
f 52/52/52 53/53/55 58/58/56 57/57/53
f 53/53/55 54/54/57 59/59/58 58/58/56
f 54/54/57 55/55/59 60/60/60 59/59/58
f 56/56/54 57/57/53 62/62/61 61/61/62
f 57/57/53 58/58/56 63/63/63 62/62/61
f 58/58/56 59/59/58 64/64/64 63/63/63
f 59/59/58 60/60/60 65/65/65 64/64/64
f 61/61/62 62/62/61 67/67/66 66/66/67
f 62/62/61 63/63/63 68/68/68 67/67/66
f 63/63/63 64/64/64 69/69/69 68/68/68
f 64/64/64 65/65/65 70/70/70 69/69/69
f 66/66/67 67/67/66 72/72/71 71/71/72
f 67/67/66 68/68/68 73/73/73 72/72/71
f 68/68/68 69/69/69 74/74/74 73/73/73
f 69/69/69 70/70/70 75/75/75 74/74/74
g default
v -0.003918 0.000844 0.473621
v -0.003918 0.000844 0.223621
v -0.003918 0.000844 -0.026379
v -0.003918 0.000844 -0.276379
v -0.003918 0.000844 -0.526379
v -0.003918 0.250844 0.473621
v -0.003918 0.250844 0.223621
v -0.003918 0.250844 -0.026379
v -0.003918 0.250844 -0.276379
v -0.003918 0.250844 -0.526379
v -0.003918 0.500844 0.473621
v -0.003918 0.500844 0.223621
v -0.003918 0.500844 -0.026379
v -0.003918 0.500844 -0.276379
v -0.003918 0.500844 -0.526379
v -0.003918 0.750844 0.473621
v -0.003918 0.750844 0.223621
v -0.003918 0.750844 -0.026379
v -0.003918 0.750844 -0.276379
v -0.003918 0.750844 -0.526379
v -0.003918 1.000844 0.473621
v -0.003918 1.000844 0.223621
v -0.003918 1.000844 -0.026379
v -0.003918 1.000844 -0.276379
v -0.003918 1.000844 -0.526379
vt 0.000000 0.000000
vt 0.250000 0.000000
vt 0.500000 0.000000
vt 0.750000 0.000000
vt 1.000000 0.000000
vt 0.000000 0.250000
vt 0.250000 0.250000
vt 0.500000 0.250000
vt 0.750000 0.250000
vt 1.000000 0.250000
vt 0.000000 0.500000
vt 0.250000 0.500000
vt 0.500000 0.500000
vt 0.750000 0.500000
vt 1.000000 0.500000
vt 0.000000 0.750000
vt 0.250000 0.750000
vt 0.500000 0.750000
vt 0.750000 0.750000
vt 1.000000 0.750000
vt 0.000000 1.000000
vt 0.250000 1.000000
vt 0.500000 1.000000
vt 0.750000 1.000000
vt 1.000000 1.000000
vn 1.000000 0.000000 0.000000
vn 1.000000 0.000000 0.000000
vn 1.000000 0.000000 0.000000
vn 1.000000 0.000000 0.000000
vn 1.000000 0.000000 0.000000
vn 1.000000 0.000000 0.000000
vn 1.000000 0.000000 0.000000
vn 1.000000 0.000000 0.000000
vn 1.000000 0.000000 0.000000
vn 1.000000 0.000000 0.000000
vn 1.000000 0.000000 0.000000
vn 1.000000 0.000000 0.000000
vn 1.000000 0.000000 0.000000
vn 1.000000 0.000000 0.000000
vn 1.000000 0.000000 0.000000
vn 1.000000 0.000000 0.000000
vn 1.000000 0.000000 0.000000
vn 1.000000 0.000000 0.000000
vn 1.000000 0.000000 0.000000
vn 1.000000 0.000000 0.000000
vn 1.000000 0.000000 0.000000
vn 1.000000 0.000000 0.000000
vn 1.000000 0.000000 0.000000
vn 1.000000 0.000000 0.000000
vn 1.000000 0.000000 0.000000
s 1
g pPlane3
usemtl initialShadingGroup
f 76/76/76 77/77/77 82/82/78 81/81/79
f 77/77/77 78/78/80 83/83/81 82/82/78
f 78/78/80 79/79/82 84/84/83 83/83/81
f 79/79/82 80/80/84 85/85/85 84/84/83
f 81/81/79 82/82/78 87/87/86 86/86/87
f 82/82/78 83/83/81 88/88/88 87/87/86
f 83/83/81 84/84/83 89/89/89 88/88/88
f 84/84/83 85/85/85 90/90/90 89/89/89
f 86/86/87 87/87/86 92/92/91 91/91/92
f 87/87/86 88/88/88 93/93/93 92/92/91
f 88/88/88 89/89/89 94/94/94 93/93/93
f 89/89/89 90/90/90 95/95/95 94/94/94
f 91/91/92 92/92/91 97/97/96 96/96/97
f 92/92/91 93/93/93 98/98/98 97/97/96
f 93/93/93 94/94/94 99/99/99 98/98/98
f 94/94/94 95/95/95 100/100/100 99/99/99
