# This file uses centimeters as units for non-parametric coordinates.

mtllib RaizGrande2.mtl
g default
v -2.637750 -0.003787 0.028194
v -2.569732 -0.003196 0.161693
v -2.463792 -0.002276 0.267637
v -2.330299 -0.001116 0.335657
v -2.182321 0.000170 0.359095
v -2.034343 0.001455 0.335657
v -1.900849 0.002615 0.267637
v -1.794909 0.003535 0.161692
v -1.726891 0.004126 0.028194
v -1.703454 0.004329 -0.119789
v -1.726891 0.004126 -0.267773
v -1.794909 0.003535 -0.401271
v -1.900850 0.002615 -0.507215
v -2.034343 0.001455 -0.575236
v -2.182321 0.000170 -0.598674
v -2.330298 -0.001116 -0.575236
v -2.463792 -0.002276 -0.507215
v -2.569732 -0.003196 -0.401271
v -2.637750 -0.003787 -0.267773
v -2.661187 -0.003990 -0.119789
v -0.565703 3.658933 -0.119789
v -1.216579 -0.003787 0.028194
v -1.148561 -0.003196 0.161693
v -1.042621 -0.002276 0.267637
v -0.909127 -0.001116 0.335657
v -0.761149 0.000170 0.359095
v -0.613172 0.001455 0.335657
v -0.479678 0.002615 0.267637
v -0.373738 0.003535 0.161692
v -0.305720 0.004126 0.028194
v -0.282283 0.004329 -0.119789
v -0.305720 0.004126 -0.267773
v -0.373738 0.003535 -0.401271
v -0.479679 0.002615 -0.507215
v -0.613172 0.001455 -0.575236
v -0.761149 0.000170 -0.598674
v -0.909127 -0.001116 -0.575236
v -1.042621 -0.002276 -0.507215
v -1.148561 -0.003196 -0.401271
v -1.216579 -0.003787 -0.267773
v -1.240016 -0.003990 -0.119789
v 0.855468 3.658933 -0.119789
v 1.742431 -0.003787 0.028194
v 1.810449 -0.003196 0.161693
v 1.916390 -0.002276 0.267637
v 2.049883 -0.001116 0.335657
v 2.197861 0.000170 0.359095
v 2.345839 0.001455 0.335657
v 2.479332 0.002615 0.267637
v 2.585272 0.003535 0.161692
v 2.653290 0.004126 0.028194
v 2.676727 0.004329 -0.119789
v 2.653290 0.004126 -0.267773
v 2.585272 0.003535 -0.401271
v 2.479332 0.002615 -0.507215
v 2.345839 0.001455 -0.575236
v 2.197861 0.000170 -0.598674
v 2.049883 -0.001116 -0.575236
v 1.916390 -0.002276 -0.507215
v 1.810449 -0.003196 -0.401271
v 1.742431 -0.003787 -0.267773
v 1.718994 -0.003990 -0.119789
v 3.814478 3.658933 -0.119789
v 0.243324 -0.003787 0.028194
v 0.311342 -0.003196 0.161693
v 0.417282 -0.002276 0.267637
v 0.550775 -0.001116 0.335657
v 0.698753 0.000170 0.359095
v 0.846731 0.001455 0.335657
v 0.980225 0.002615 0.267637
v 1.086165 0.003535 0.161692
v 1.154183 0.004126 0.028194
v 1.177620 0.004329 -0.119789
v 1.154183 0.004126 -0.267773
v 1.086165 0.003535 -0.401271
v 0.980224 0.002615 -0.507215
v 0.846731 0.001455 -0.575236
v 0.698753 0.000170 -0.598674
v 0.550775 -0.001116 -0.575236
v 0.417282 -0.002276 -0.507215
v 0.311342 -0.003196 -0.401271
v 0.243324 -0.003787 -0.267773
v 0.219887 -0.003990 -0.119789
v 2.315371 3.658933 -0.119789
vt 0.250000 0.500000
vt 0.275000 0.500000
vt 0.300000 0.500000
vt 0.325000 0.500000
vt 0.350000 0.500000
vt 0.375000 0.500000
vt 0.400000 0.500000
vt 0.425000 0.500000
vt 0.450000 0.500000
vt 0.475000 0.500000
vt 0.500000 0.500000
vt 0.525000 0.500000
vt 0.550000 0.500000
vt 0.575000 0.500000
vt 0.600000 0.500000
vt 0.625000 0.500000
vt 0.650000 0.500000
vt 0.675000 0.500000
vt 0.700000 0.500000
vt 0.725000 0.500000
vt 0.750000 0.500000
vt 0.500000 1.000000
vt 0.250000 0.500000
vt 0.275000 0.500000
vt 0.500000 1.000000
vt 0.300000 0.500000
vt 0.325000 0.500000
vt 0.350000 0.500000
vt 0.375000 0.500000
vt 0.400000 0.500000
vt 0.425000 0.500000
vt 0.450000 0.500000
vt 0.475000 0.500000
vt 0.500000 0.500000
vt 0.525000 0.500000
vt 0.550000 0.500000
vt 0.575000 0.500000
vt 0.600000 0.500000
vt 0.625000 0.500000
vt 0.650000 0.500000
vt 0.675000 0.500000
vt 0.700000 0.500000
vt 0.725000 0.500000
vt 0.750000 0.500000
vt 0.250000 0.500000
vt 0.275000 0.500000
vt 0.500000 1.000000
vt 0.300000 0.500000
vt 0.325000 0.500000
vt 0.350000 0.500000
vt 0.375000 0.500000
vt 0.400000 0.500000
vt 0.425000 0.500000
vt 0.450000 0.500000
vt 0.475000 0.500000
vt 0.500000 0.500000
vt 0.525000 0.500000
vt 0.550000 0.500000
vt 0.575000 0.500000
vt 0.600000 0.500000
vt 0.625000 0.500000
vt 0.650000 0.500000
vt 0.675000 0.500000
vt 0.700000 0.500000
vt 0.725000 0.500000
vt 0.750000 0.500000
vt 0.250000 0.500000
vt 0.275000 0.500000
vt 0.500000 1.000000
vt 0.300000 0.500000
vt 0.325000 0.500000
vt 0.350000 0.500000
vt 0.375000 0.500000
vt 0.400000 0.500000
vt 0.425000 0.500000
vt 0.450000 0.500000
vt 0.475000 0.500000
vt 0.500000 0.500000
vt 0.525000 0.500000
vt 0.550000 0.500000
vt 0.575000 0.500000
vt 0.600000 0.500000
vt 0.625000 0.500000
vt 0.650000 0.500000
vt 0.675000 0.500000
vt 0.700000 0.500000
vt 0.725000 0.500000
vt 0.750000 0.500000
vn -0.790425 0.463342 0.400678
vn -0.790425 0.463342 0.400678
vn -0.790425 0.463342 0.400678
vn -0.648464 0.404430 0.644927
vn -0.648464 0.404430 0.644927
vn -0.648464 0.404430 0.644927
vn -0.433208 0.313989 0.844832
vn -0.433208 0.313989 0.844832
vn -0.433208 0.313989 0.844832
vn -0.155079 0.195274 0.968410
vn -0.155079 0.195274 0.968410
vn -0.155079 0.195274 0.968410
vn 0.155641 0.060281 0.985973
vn 0.155641 0.060281 0.985973
vn 0.155641 0.060281 0.985973
vn 0.453337 -0.071398 0.888475
vn 0.453337 -0.071398 0.888475
vn 0.453337 -0.071398 0.888475
vn 0.696273 -0.180643 0.694674
vn 0.696273 -0.180643 0.694674
vn 0.696273 -0.180643 0.694674
vn 0.861765 -0.256063 0.437942
vn 0.861765 -0.256063 0.437942
vn 0.861765 -0.256063 0.437942
vn 0.944125 -0.293925 0.149121
vn 0.944125 -0.293925 0.149121
vn 0.944125 -0.293925 0.149121
vn 0.944125 -0.293925 -0.149121
vn 0.944125 -0.293925 -0.149121
vn 0.944125 -0.293925 -0.149121
vn 0.861765 -0.256063 -0.437941
vn 0.861765 -0.256063 -0.437941
vn 0.861765 -0.256063 -0.437941
vn 0.696270 -0.180642 -0.694678
vn 0.696270 -0.180642 -0.694678
vn 0.696270 -0.180642 -0.694678
vn 0.453338 -0.071398 -0.888474
vn 0.453338 -0.071398 -0.888474
vn 0.453338 -0.071398 -0.888474
vn 0.155641 0.060281 -0.985973
vn 0.155641 0.060281 -0.985973
vn 0.155641 0.060281 -0.985973
vn -0.155079 0.195274 -0.968410
vn -0.155079 0.195274 -0.968410
vn -0.155079 0.195274 -0.968410
vn -0.433207 0.313988 -0.844833
vn -0.433207 0.313988 -0.844833
vn -0.433207 0.313988 -0.844833
vn -0.648464 0.404430 -0.644927
vn -0.648464 0.404430 -0.644927
vn -0.648464 0.404430 -0.644927
vn -0.790426 0.463342 -0.400676
vn -0.790426 0.463342 -0.400676
vn -0.790426 0.463342 -0.400676
vn -0.859992 0.491984 -0.135523
vn -0.859992 0.491984 -0.135523
vn -0.859992 0.491984 -0.135523
vn -0.859992 0.491984 0.135521
vn -0.859992 0.491984 0.135521
vn -0.859992 0.491984 0.135521
vn -0.790425 0.463342 0.400678
vn -0.790425 0.463342 0.400678
vn -0.790425 0.463342 0.400678
vn -0.648464 0.404430 0.644927
vn -0.648464 0.404430 0.644927
vn -0.648464 0.404430 0.644927
vn -0.433208 0.313988 0.844833
vn -0.433208 0.313989 0.844833
vn -0.433208 0.313988 0.844833
vn -0.155079 0.195274 0.968410
vn -0.155079 0.195274 0.968410
vn -0.155079 0.195274 0.968410
vn 0.155641 0.060281 0.985973
vn 0.155641 0.060281 0.985973
vn 0.155641 0.060281 0.985973
vn 0.453337 -0.071398 0.888475
vn 0.453337 -0.071398 0.888475
vn 0.453337 -0.071398 0.888475
vn 0.696273 -0.180644 0.694674
vn 0.696273 -0.180644 0.694674
vn 0.696273 -0.180644 0.694674
vn 0.861765 -0.256063 0.437942
vn 0.861765 -0.256063 0.437942
vn 0.861765 -0.256063 0.437942
vn 0.944125 -0.293925 0.149121
vn 0.944125 -0.293925 0.149121
vn 0.944125 -0.293925 0.149121
vn 0.944125 -0.293925 -0.149121
vn 0.944125 -0.293925 -0.149121
vn 0.944125 -0.293925 -0.149121
vn 0.861765 -0.256063 -0.437941
vn 0.861765 -0.256064 -0.437941
vn 0.861765 -0.256063 -0.437941
vn 0.696270 -0.180642 -0.694678
vn 0.696270 -0.180642 -0.694678
vn 0.696270 -0.180642 -0.694678
vn 0.453339 -0.071398 -0.888474
vn 0.453339 -0.071398 -0.888474
vn 0.453339 -0.071398 -0.888474
vn 0.155641 0.060281 -0.985973
vn 0.155641 0.060281 -0.985973
vn 0.155641 0.060281 -0.985973
vn -0.155079 0.195274 -0.968410
vn -0.155079 0.195274 -0.968410
vn -0.155079 0.195274 -0.968410
vn -0.433207 0.313988 -0.844833
vn -0.433207 0.313988 -0.844833
vn -0.433207 0.313988 -0.844833
vn -0.648464 0.404430 -0.644927
vn -0.648464 0.404430 -0.644927
vn -0.648464 0.404430 -0.644927
vn -0.790426 0.463342 -0.400676
vn -0.790426 0.463342 -0.400676
vn -0.790426 0.463342 -0.400676
vn -0.859992 0.491984 -0.135523
vn -0.859992 0.491984 -0.135523
vn -0.859992 0.491984 -0.135523
vn -0.859992 0.491984 0.135521
vn -0.859992 0.491984 0.135521
vn -0.859992 0.491984 0.135521
vn -0.790425 0.463342 0.400678
vn -0.790425 0.463342 0.400678
vn -0.790425 0.463342 0.400678
vn -0.648464 0.404430 0.644927
vn -0.648464 0.404430 0.644927
vn -0.648464 0.404430 0.644927
vn -0.433208 0.313989 0.844832
vn -0.433208 0.313989 0.844832
vn -0.433208 0.313989 0.844832
vn -0.155079 0.195274 0.968410
vn -0.155079 0.195274 0.968410
vn -0.155079 0.195274 0.968410
vn 0.155641 0.060281 0.985973
vn 0.155641 0.060281 0.985973
vn 0.155641 0.060281 0.985973
vn 0.453337 -0.071398 0.888475
vn 0.453337 -0.071398 0.888475
vn 0.453337 -0.071398 0.888475
vn 0.696273 -0.180644 0.694674
vn 0.696273 -0.180644 0.694674
vn 0.696273 -0.180644 0.694674
vn 0.861765 -0.256063 0.437942
vn 0.861765 -0.256063 0.437942
vn 0.861765 -0.256063 0.437942
vn 0.944125 -0.293925 0.149122
vn 0.944125 -0.293925 0.149122
vn 0.944125 -0.293925 0.149122
vn 0.944124 -0.293925 -0.149122
vn 0.944124 -0.293925 -0.149122
vn 0.944124 -0.293925 -0.149122
vn 0.861765 -0.256063 -0.437941
vn 0.861765 -0.256063 -0.437941
vn 0.861765 -0.256063 -0.437941
vn 0.696270 -0.180642 -0.694678
vn 0.696270 -0.180642 -0.694678
vn 0.696270 -0.180642 -0.694678
vn 0.453338 -0.071399 -0.888474
vn 0.453338 -0.071399 -0.888474
vn 0.453338 -0.071399 -0.888474
vn 0.155641 0.060281 -0.985973
vn 0.155641 0.060281 -0.985973
vn 0.155641 0.060281 -0.985973
vn -0.155079 0.195274 -0.968410
vn -0.155079 0.195274 -0.968410
vn -0.155079 0.195274 -0.968410
vn -0.433207 0.313988 -0.844833
vn -0.433207 0.313988 -0.844833
vn -0.433207 0.313988 -0.844833
vn -0.648464 0.404430 -0.644927
vn -0.648464 0.404430 -0.644927
vn -0.648464 0.404430 -0.644927
vn -0.790426 0.463342 -0.400676
vn -0.790426 0.463342 -0.400676
vn -0.790426 0.463342 -0.400676
vn -0.859992 0.491984 -0.135523
vn -0.859992 0.491984 -0.135523
vn -0.859992 0.491984 -0.135523
vn -0.859992 0.491984 0.135521
vn -0.859992 0.491984 0.135521
vn -0.859992 0.491984 0.135521
vn -0.790425 0.463342 0.400678
vn -0.790425 0.463342 0.400678
vn -0.790425 0.463342 0.400678
vn -0.648464 0.404431 0.644926
vn -0.648464 0.404431 0.644926
vn -0.648464 0.404431 0.644926
vn -0.433208 0.313988 0.844833
vn -0.433208 0.313988 0.844833
vn -0.433208 0.313988 0.844833
vn -0.155079 0.195274 0.968410
vn -0.155079 0.195274 0.968410
vn -0.155079 0.195274 0.968410
vn 0.155641 0.060281 0.985973
vn 0.155641 0.060281 0.985973
vn 0.155641 0.060281 0.985973
vn 0.453337 -0.071397 0.888475
vn 0.453337 -0.071397 0.888475
vn 0.453337 -0.071397 0.888475
vn 0.696272 -0.180644 0.694675
vn 0.696272 -0.180644 0.694675
vn 0.696272 -0.180644 0.694675
vn 0.861765 -0.256064 0.437941
vn 0.861765 -0.256064 0.437941
vn 0.861765 -0.256064 0.437941
vn 0.944125 -0.293925 0.149121
vn 0.944125 -0.293925 0.149121
vn 0.944125 -0.293925 0.149121
vn 0.944125 -0.293925 -0.149121
vn 0.944125 -0.293925 -0.149121
vn 0.944125 -0.293925 -0.149121
vn 0.861765 -0.256064 -0.437940
vn 0.861765 -0.256064 -0.437940
vn 0.861765 -0.256064 -0.437940
vn 0.696270 -0.180642 -0.694678
vn 0.696270 -0.180642 -0.694678
vn 0.696270 -0.180642 -0.694678
vn 0.453338 -0.071398 -0.888474
vn 0.453338 -0.071398 -0.888474
vn 0.453338 -0.071398 -0.888474
vn 0.155641 0.060281 -0.985973
vn 0.155641 0.060281 -0.985973
vn 0.155641 0.060281 -0.985973
vn -0.155079 0.195274 -0.968410
vn -0.155079 0.195274 -0.968410
vn -0.155079 0.195274 -0.968410
vn -0.433207 0.313988 -0.844833
vn -0.433207 0.313988 -0.844833
vn -0.433207 0.313988 -0.844833
vn -0.648464 0.404431 -0.644926
vn -0.648464 0.404431 -0.644926
vn -0.648464 0.404431 -0.644926
vn -0.790425 0.463342 -0.400677
vn -0.790425 0.463342 -0.400677
vn -0.790425 0.463342 -0.400677
vn -0.859992 0.491984 -0.135523
vn -0.859992 0.491984 -0.135523
vn -0.859992 0.491984 -0.135523
vn -0.859992 0.491984 0.135522
vn -0.859992 0.491984 0.135522
vn -0.859992 0.491984 0.135522
s off
g pCone8
usemtl initialShadingGroup
f 1/1/1 2/2/2 21/22/3
f 2/2/4 3/3/5 21/22/6
f 3/3/7 4/4/8 21/22/9
f 4/4/10 5/5/11 21/22/12
f 5/5/13 6/6/14 21/22/15
f 6/6/16 7/7/17 21/22/18
f 7/7/19 8/8/20 21/22/21
f 8/8/22 9/9/23 21/22/24
f 9/9/25 10/10/26 21/22/27
f 10/10/28 11/11/29 21/22/30
f 11/11/31 12/12/32 21/22/33
f 12/12/34 13/13/35 21/22/36
f 13/13/37 14/14/38 21/22/39
f 14/14/40 15/15/41 21/22/42
f 15/15/43 16/16/44 21/22/45
f 16/16/46 17/17/47 21/22/48
f 17/17/49 18/18/50 21/22/51
f 18/18/52 19/19/53 21/22/54
f 19/19/55 20/20/56 21/22/57
f 20/20/58 1/21/59 21/22/60
f 22/23/61 23/24/62 42/25/63
f 23/24/64 24/26/65 42/25/66
f 24/26/67 25/27/68 42/25/69
f 25/27/70 26/28/71 42/25/72
f 26/28/73 27/29/74 42/25/75
f 27/29/76 28/30/77 42/25/78
f 28/30/79 29/31/80 42/25/81
f 29/31/82 30/32/83 42/25/84
f 30/32/85 31/33/86 42/25/87
f 31/33/88 32/34/89 42/25/90
f 32/34/91 33/35/92 42/25/93
f 33/35/94 34/36/95 42/25/96
f 34/36/97 35/37/98 42/25/99
f 35/37/100 36/38/101 42/25/102
f 36/38/103 37/39/104 42/25/105
f 37/39/106 38/40/107 42/25/108
f 38/40/109 39/41/110 42/25/111
f 39/41/112 40/42/113 42/25/114
f 40/42/115 41/43/116 42/25/117
f 41/43/118 22/44/119 42/25/120
f 43/45/121 44/46/122 63/47/123
f 44/46/124 45/48/125 63/47/126
f 45/48/127 46/49/128 63/47/129
f 46/49/130 47/50/131 63/47/132
f 47/50/133 48/51/134 63/47/135
f 48/51/136 49/52/137 63/47/138
f 49/52/139 50/53/140 63/47/141
f 50/53/142 51/54/143 63/47/144
f 51/54/145 52/55/146 63/47/147
f 52/55/148 53/56/149 63/47/150
f 53/56/151 54/57/152 63/47/153
f 54/57/154 55/58/155 63/47/156
f 55/58/157 56/59/158 63/47/159
f 56/59/160 57/60/161 63/47/162
f 57/60/163 58/61/164 63/47/165
f 58/61/166 59/62/167 63/47/168
f 59/62/169 60/63/170 63/47/171
f 60/63/172 61/64/173 63/47/174
f 61/64/175 62/65/176 63/47/177
f 62/65/178 43/66/179 63/47/180
f 64/67/181 65/68/182 84/69/183
f 65/68/184 66/70/185 84/69/186
f 66/70/187 67/71/188 84/69/189
f 67/71/190 68/72/191 84/69/192
f 68/72/193 69/73/194 84/69/195
f 69/73/196 70/74/197 84/69/198
f 70/74/199 71/75/200 84/69/201
f 71/75/202 72/76/203 84/69/204
f 72/76/205 73/77/206 84/69/207
f 73/77/208 74/78/209 84/69/210
f 74/78/211 75/79/212 84/69/213
f 75/79/214 76/80/215 84/69/216
f 76/80/217 77/81/218 84/69/219
f 77/81/220 78/82/221 84/69/222
f 78/82/223 79/83/224 84/69/225
f 79/83/226 80/84/227 84/69/228
f 80/84/229 81/85/230 84/69/231
f 81/85/232 82/86/233 84/69/234
f 82/86/235 83/87/236 84/69/237
f 83/87/238 64/88/239 84/69/240
