# This file uses centimeters as units for non-parametric coordinates.

mtllib medio-inferior.mtl
g default
v -2.244133 -5.312137 5.322047
v 2.244133 -5.312137 5.322047
v -2.244133 -9.800404 -5.325472
v 2.244133 -9.800404 -5.325472
v -2.244133 -8.545538 5.322047
v 2.244133 -8.545538 5.322047
v -2.244133 -9.175760 4.936880
v -2.244133 -9.800404 4.694677
v 2.244133 -9.800404 4.694677
v 2.244133 -9.173034 5.069575
v -2.244133 -9.800404 -0.315397
v 2.244133 -9.800404 -0.315397
vt 0.195530 0.472305
vt 0.195466 0.441955
vt 0.379963 0.444504
vt 0.379963 0.472298
vt 0.195473 0.414424
vt 0.195528 0.208547
vt 0.379957 0.208597
vt 0.379907 0.414472
vt 0.195535 0.605173
vt 0.379968 0.605166
vt 0.195578 0.002673
vt 0.380012 0.002720
vn -0.013046 -0.452150 0.891847
vn -0.013046 -0.452150 0.891847
vn -0.013046 -0.452150 0.891847
vn -0.013046 -0.452150 0.891847
vn 0.000000 -1.000000 0.000000
vn 0.000000 -1.000000 0.000000
vn 0.000000 -1.000000 0.000000
vn 0.000000 -1.000000 0.000000
vn 0.000000 0.000000 1.000000
vn 0.000000 0.000000 1.000000
vn 0.000000 0.000000 1.000000
vn 0.000000 0.000000 1.000000
vn -0.013124 -0.442064 0.896888
vn -0.013124 -0.442064 0.896888
vn -0.013124 -0.442064 0.896888
vn -0.013124 -0.442064 0.896888
vn 0.000000 -1.000000 0.000000
vn 0.000000 -1.000000 0.000000
s off
g pCube12
usemtl lambert4SG
f 5/1/1 7/2/2 10/3/3 6/4/4
s 1
f 8/5/5 11/6/6 12/7/7 9/8/8
s off
f 1/9/9 5/1/10 6/4/11 2/10/12
f 8/5/13 9/8/14 10/3/15 7/2/16
s 1
f 12/7/7 11/6/6 3/11/17 4/12/18
