# This file uses centimeters as units for non-parametric coordinates.

mtllib medio-medio-mirroreado.mtl
g default
v 2.259280 -2.272608 0.001921
v -2.228986 -2.272608 0.001921
v 2.259280 -5.210084 0.001921
v -2.228986 -5.210084 0.001921
vt 0.652488 0.001992
vt 0.654097 0.996955
vt 0.002915 0.998008
vt 0.001306 0.003046
vn 0.000000 0.000000 1.000000
vn 0.000000 0.000000 1.000000
vn 0.000000 0.000000 1.000000
vn 0.000000 0.000000 1.000000
s off
g pCube10
usemtl initialShadingGroup
f 1/1/1 2/2/2 4/3/3 3/4/4
