# This file uses centimeters as units for non-parametric coordinates.

mtllib cartel1.mtl
g default
v -0.938668 4.953895 0.096104
v -0.938668 4.486290 0.093578
v -0.938668 4.483765 0.187771
v -0.938668 4.951369 0.190296
v -1.599970 4.718830 0.158965
v 0.483656 4.951369 0.190296
v 0.483656 4.953895 0.096104
v 0.483656 4.483765 0.187771
v 0.483656 4.486290 0.093578
v 0.096827 0.001654 -0.167708
v -0.096826 0.001654 -0.167708
v -0.193653 0.001654 -0.000000
v -0.096827 0.001654 0.167708
v 0.096827 0.001654 0.167708
v 0.193653 0.001654 0.000000
v 0.096827 5.230286 -0.167708
v -0.096826 5.230286 -0.167708
v -0.193653 5.230286 -0.000000
v -0.096827 5.230286 0.167708
v 0.096827 5.230286 0.167708
v 0.193653 5.230286 0.000000
v 0.000000 5.230286 0.000000
v -0.622542 4.340355 -0.212451
v -0.621235 3.872751 -0.214612
v -0.669958 3.870225 -0.134000
v -0.671265 4.337829 -0.131839
v -1.221014 4.105290 -0.500726
v 0.545990 4.337829 0.603890
v 0.594713 4.340355 0.523278
v 0.547296 3.870225 0.601729
v 0.596019 3.872751 0.521117
v 0.783258 2.932471 0.189060
v 0.783249 2.464866 0.191586
v 0.783569 2.462340 0.097393
v 0.783577 2.929945 0.094868
v 1.444769 2.697406 0.128440
v -0.638739 2.929945 0.090047
v -0.639058 2.932471 0.184240
v -0.638747 2.462340 0.092573
v -0.639066 2.464866 0.186765
vt 0.747959 0.827524
vt 0.732091 0.789086
vt 0.732691 0.694000
vt 0.739247 0.678656
vt 0.404755 0.678691
vt 0.407721 0.699788
vt 0.254293 0.749967
vt 0.411991 0.803609
vt 0.410040 0.824979
vt 0.155400 0.002433
vt 0.190706 0.002439
vt 0.918028 0.075299
vt 0.795914 0.021385
vt 0.226013 0.002446
vt 0.932394 0.208011
vt 0.043063 0.004931
vt 0.824645 0.286809
vt 0.077312 0.002417
vt 0.702529 0.232898
vt 0.114191 0.002525
vt 0.688167 0.100185
vt 0.810276 0.154084
vt 0.712526 0.426324
vt 0.697846 0.390546
vt 0.698363 0.301946
vt 0.704362 0.287607
vt 0.395891 0.286864
vt 0.398342 0.306675
vt 0.254821 0.356206
vt 0.398147 0.406211
vt 0.395739 0.426427
vt 0.322057 0.599302
vt 0.315076 0.615693
vt 0.315090 0.451151
vt 0.322057 0.467863
vt 0.676226 0.592305
vt 0.676408 0.475119
vt 0.845187 0.534013
vt 0.679636 0.451874
vt 0.679508 0.615498
vt 0.120093 0.002426
vt 0.111486 0.998008
vt 0.006286 0.004742
vt 0.001020 0.997567
vt 0.074639 0.997884
vt 0.037818 0.997738
vt 0.119909 0.955705
vt 0.225829 0.955725
vt 0.155216 0.955711
vt 0.190522 0.955718
vn 1.000000 0.000000 0.000000
vn 1.000000 0.000000 0.000000
vn 1.000000 0.000000 0.000000
vn 1.000000 0.000000 0.000000
vn -0.333844 -0.942290 -0.025261
vn -0.333844 -0.942290 -0.025261
vn -0.333844 -0.942290 -0.025261
vn -0.045432 -0.005396 0.998953
vn -0.045432 -0.005396 0.998953
vn -0.045432 -0.005396 0.998953
vn -0.332687 0.942699 0.025272
vn -0.332687 0.942699 0.025272
vn -0.332687 0.942699 0.025272
vn 0.000000 0.999641 0.026805
vn 0.000000 0.999641 0.026805
vn 0.000000 0.999641 0.026805
vn 0.000000 0.999641 0.026805
vn 0.000000 -0.005402 0.999986
vn 0.000000 -0.005402 0.999986
vn 0.000000 -0.005402 0.999986
vn 0.000000 -0.005402 0.999986
vn 0.000000 -0.999641 -0.026809
vn 0.000000 -0.999641 -0.026809
vn 0.000000 -0.999641 -0.026809
vn 0.000000 -0.999641 -0.026809
vn 0.000000 0.000000 -1.000000
vn 0.000000 0.000000 -1.000000
vn 0.000000 0.000000 -1.000000
vn 0.000000 0.000000 -1.000000
vn -0.866025 0.000000 -0.500000
vn -0.866025 0.000000 -0.500000
vn -0.866025 0.000000 -0.500000
vn -0.866025 0.000000 -0.500000
vn -0.866026 0.000000 0.500000
vn -0.866026 0.000000 0.500000
vn -0.866026 0.000000 0.500000
vn -0.866026 0.000000 0.500000
vn -0.000000 0.000000 1.000000
vn -0.000000 0.000000 1.000000
vn -0.000000 0.000000 1.000000
vn -0.000000 0.000000 1.000000
vn 0.866025 0.000000 0.500000
vn 0.866025 0.000000 0.500000
vn 0.866025 0.000000 0.500000
vn 0.866025 0.000000 0.500000
vn 0.866026 0.000000 -0.500000
vn 0.866026 0.000000 -0.500000
vn 0.866026 0.000000 -0.500000
vn 0.866026 0.000000 -0.500000
vn 0.000000 1.000000 -0.000004
vn 0.000000 1.000000 -0.000002
vn 0.000000 1.000000 0.000000
vn 0.000000 1.000000 0.000002
vn 0.000000 1.000000 0.000004
vn 0.000000 1.000000 0.000002
vn 0.000000 1.000000 -0.000002
vn 0.855821 0.000000 0.517272
vn 0.855821 0.000000 0.517272
vn 0.855821 0.000000 0.517272
vn 0.855821 0.000000 0.517272
vn -0.272639 -0.942289 -0.194320
vn -0.272639 -0.942289 -0.194320
vn -0.272639 -0.942289 -0.194320
vn -0.555612 -0.005396 0.831424
vn -0.555612 -0.005396 0.831424
vn -0.555612 -0.005396 0.831424
vn -0.297796 0.942698 -0.150456
vn -0.297796 0.942699 -0.150456
vn -0.297796 0.942698 -0.150456
vn -0.013866 0.999641 0.022942
vn -0.013866 0.999641 0.022942
vn -0.013866 0.999641 0.022942
vn -0.013866 0.999641 0.022942
vn -0.517265 -0.005401 0.855808
vn -0.517265 -0.005401 0.855808
vn -0.517265 -0.005401 0.855808
vn -0.517265 -0.005401 0.855808
vn 0.013867 -0.999641 -0.022938
vn 0.013867 -0.999641 -0.022938
vn 0.013867 -0.999641 -0.022938
vn 0.013867 -0.999641 -0.022938
vn -0.999994 0.000000 -0.003389
vn -0.999994 0.000000 -0.003389
vn -0.999994 0.000000 -0.003389
vn -0.999994 0.000000 -0.003389
vn 0.093149 0.005376 0.995638
vn 0.093149 0.005376 0.995638
vn 0.093149 0.005376 0.995638
vn 0.333756 -0.942290 0.026397
vn 0.333756 -0.942290 0.026397
vn 0.333756 -0.942290 0.026397
vn 0.332770 0.942699 -0.024150
vn 0.332770 0.942699 -0.024150
vn 0.332770 0.942699 -0.024150
vn 0.000091 0.999641 -0.026805
vn 0.000091 0.999641 -0.026805
vn 0.000091 0.999641 -0.026805
vn 0.000091 0.999641 -0.026805
vn -0.000091 -0.999641 0.026804
vn -0.000091 -0.999641 0.026804
vn -0.000091 -0.999641 0.026804
vn -0.000091 -0.999641 0.026804
vn -0.003389 0.005402 0.999980
vn -0.003389 0.005402 0.999980
vn -0.003389 0.005402 0.999980
vn -0.003389 0.005402 0.999980
s off
g pCone11
usemtl initialShadingGroup
f 7/1/1 6/2/2 8/3/3 9/4/4
f 2/5/5 3/6/6 5/7/7
f 3/6/8 4/8/9 5/7/10
f 4/8/11 1/9/12 5/7/13
f 1/9/14 4/8/15 6/2/16 7/1/17
f 4/8/18 3/6/19 8/3/20 6/2/21
f 3/6/22 2/5/23 9/4/24 8/3/25
f 10/10/26 11/11/27 17/50/28 16/49/29
f 11/11/30 12/14/31 18/48/32 17/50/33
f 12/43/34 13/16/35 19/46/36 18/44/37
f 13/16/38 14/18/39 20/45/40 19/46/41
f 14/18/42 15/20/43 21/42/44 20/45/45
f 15/41/46 10/10/47 16/49/48 21/47/49
s 1
f 16/13/50 17/12/51 22/22/52
f 17/12/51 18/15/53 22/22/52
f 18/15/53 19/17/54 22/22/52
f 19/17/54 20/19/55 22/22/52
f 20/19/55 21/21/56 22/22/52
f 21/21/56 16/13/50 22/22/52
s off
f 29/23/57 28/24/58 30/25/59 31/26/60
f 24/27/61 25/28/62 27/29/63
f 25/28/64 26/30/65 27/29/66
f 26/30/67 23/31/68 27/29/69
f 23/31/70 26/30/71 28/24/72 29/23/73
f 26/30/74 25/28/75 30/25/76 28/24/77
f 25/28/78 24/27/79 31/26/80 30/25/81
f 38/32/82 37/33/83 39/34/84 40/35/85
f 32/36/86 33/37/87 36/38/88
f 33/37/89 34/39/90 36/38/91
f 35/40/92 32/36/93 36/38/94
f 32/36/95 35/40/96 37/33/97 38/32/98
f 34/39/99 33/37/100 40/35/101 39/34/102
f 33/37/103 32/36/104 38/32/105 40/35/106
