# This file uses centimeters as units for non-parametric coordinates.

mtllib piedra3.mtl
g default
v 1.298270 0.025537 0.651155
v 0.407556 -0.011355 0.840383
v 1.058711 0.876188 0.081438
v 1.461147 -0.004216 -0.387615
v -0.382496 0.000743 0.387615
v 0.442924 0.697723 0.281471
v 0.671096 -0.005799 -0.840383
v -0.219619 -0.014133 -0.651155
vt 0.788112 0.616437
vt 0.370690 0.551473
vt 0.793491 0.300216
vt 0.584516 0.919427
vt 0.445145 0.356298
vt 0.029128 0.316241
vt 0.473742 0.019876
vt 0.149097 0.059665
vt 0.650484 0.018388
vt 0.485081 0.356849
vt 0.039551 0.599276
vt 0.424847 0.582002
vn 0.146488 0.578614 0.802339
vn 0.146488 0.578614 0.802339
vn 0.146488 0.578614 0.802339
vn 0.926400 0.351435 0.135192
vn 0.926400 0.351435 0.135191
vn 0.926400 0.351435 0.135192
vn 0.076774 0.614848 0.784900
vn 0.076774 0.614848 0.784900
vn 0.076774 0.614848 0.784900
vn 0.408519 0.567573 -0.714824
vn 0.408518 0.567573 -0.714824
vn 0.408519 0.567573 -0.714824
vn -0.398350 0.579977 0.710594
vn -0.398350 0.579977 0.710594
vn -0.398350 0.579977 0.710594
vn -0.391827 0.741481 -0.544681
vn -0.391827 0.741481 -0.544681
vn -0.391827 0.741481 -0.544681
vn -0.649469 0.752004 -0.112605
vn -0.649469 0.752004 -0.112605
vn -0.649469 0.752004 -0.112605
vn -0.123568 0.829197 -0.545127
vn -0.123568 0.829197 -0.545127
vn -0.123568 0.829197 -0.545127
s off
g pPlatonic1
usemtl lambert24SG
f 1/1/1 3/12/2 2/3/3
f 1/1/4 4/4/5 3/12/6
f 2/3/7 3/12/8 6/10/9
f 3/2/10 4/11/11 7/6/12
f 2/3/13 6/10/14 5/9/15
f 3/2/16 7/6/17 6/5/18
f 5/7/19 6/5/20 8/8/21
f 6/5/22 7/6/23 8/8/24
