# This file uses centimeters as units for non-parametric coordinates.

mtllib piedraRuna4.mtl
g default
v 0.487464 -0.012426 -0.844312
v -0.487464 -0.012426 -0.844312
v -0.671641 -0.012426 -0.223487
v -0.487464 -0.012426 0.165283
v 0.487464 -0.012426 0.620826
v 0.974928 -0.012426 -0.223487
v 0.487464 0.432616 -0.844312
v -0.487464 0.432616 -0.844312
v -0.650930 0.432616 -0.223487
v -0.487464 0.432616 0.072563
v 0.487464 0.432616 0.620826
v 0.974928 0.432616 -0.223487
v 0.450224 0.833584 -0.779810
v -0.450224 0.833584 -0.779810
v -0.644538 0.833584 -0.223487
v -0.450224 0.833584 0.085223
v 0.450224 0.833584 0.556324
v 1.062242 0.833584 -0.223487
v 0.313340 1.492512 -0.542721
v -0.313340 1.492512 -0.542721
v -0.830527 1.684422 0.024335
v -0.532077 1.586990 0.229094
v 0.313340 2.515243 0.319234
v 0.886962 1.854710 -0.066193
v -0.428993 2.690120 0.000000
vt 0.620452 0.285963
vt 0.599037 0.628227
vt 0.448722 0.609774
vt 0.464031 0.287472
vt 0.545620 0.902139
vt 0.689623 0.398381
vt 0.685185 0.242230
vt 0.745295 0.276017
vt 0.770255 0.112656
vt 0.822777 0.153623
vt 0.873662 0.001801
vt 0.432786 0.017343
vt 0.317417 0.589295
vt 0.331098 0.294990
vt 0.753815 0.417470
vt 0.799275 0.305193
vt 0.868160 0.190526
vt 0.290102 0.054483
vt 0.761653 0.426947
vt 0.621691 0.608875
vt 0.989187 0.457195
vt 0.966951 0.584890
vt 0.871924 0.801385
vt 0.709266 0.821047
vt 0.849224 0.639108
vt 0.965167 0.097862
vt 0.998008 0.210555
vt 0.254394 0.822669
vt 0.874200 0.402708
vt 0.924261 0.049008
vt 0.391077 0.871947
vt 0.592954 0.001845
vt 0.624252 0.366266
vt 0.948228 0.261309
vt 0.899513 0.350897
vt 0.030082 0.107454
vt 0.090849 0.321354
vt 0.001992 0.747235
vt 0.081134 0.540985
vn 0.000000 0.000000 -1.000000
vn 0.000000 0.000000 -1.000000
vn 0.000000 0.000000 -1.000000
vn 0.000000 0.000000 -1.000000
vn -0.962726 0.022401 -0.269549
vn -0.962726 0.022401 -0.269549
vn -0.962726 0.022401 -0.269549
vn -0.962726 0.022401 -0.269549
vn -0.889636 0.067746 0.451617
vn -0.889636 0.067746 0.451617
vn -0.889636 0.067746 0.451617
vn -0.889636 0.067746 0.451617
vn -0.455766 0.092223 0.885309
vn -0.455766 0.092223 0.885309
vn -0.455766 0.092223 0.885309
vn -0.455766 0.092223 0.885309
vn 0.866025 0.000000 0.500000
vn 0.866025 0.000000 0.500000
vn 0.866025 0.000000 0.500000
vn 0.866025 0.000000 0.500000
vn 0.786520 0.000000 -0.617565
vn 0.786520 0.000000 -0.617565
vn 0.786520 0.000000 -0.617565
vn 0.786520 0.000000 -0.617565
vn 0.000000 0.158823 -0.987307
vn 0.000000 0.158823 -0.987307
vn 0.000000 0.158823 -0.987307
vn 0.000000 0.158823 -0.987307
vn -0.954071 0.075234 -0.289979
vn -0.954071 0.075234 -0.289979
vn -0.954071 0.075234 -0.289979
vn -0.954071 0.075234 -0.289979
vn -0.860017 0.038760 0.508792
vn -0.860017 0.038760 0.508792
vn -0.860017 0.038760 0.508792
vn -0.860017 0.038760 0.508792
vn -0.476794 0.056706 0.877184
vn -0.476794 0.056706 0.877184
vn -0.476794 0.056706 0.877184
vn -0.476794 0.056706 0.877184
vn 0.828074 -0.006616 0.560581
vn 0.828074 -0.006616 0.560581
vn 0.828074 -0.006616 0.560581
vn 0.828073 -0.006616 0.560581
vn 0.730773 0.009270 -0.682557
vn 0.730773 0.009270 -0.682557
vn 0.730773 0.009270 -0.682557
vn 0.730773 0.009270 -0.682557
vn 0.000000 0.338562 -0.940944
vn 0.000000 0.338562 -0.940944
vn 0.000000 0.338562 -0.940944
vn 0.000000 0.338562 -0.940944
vn -0.823688 0.148939 -0.547133
vn -0.823688 0.148939 -0.547133
vn -0.823688 0.148939 -0.547133
vn -0.823688 0.148939 -0.547133
vn -0.719131 -0.275790 0.637801
vn -0.719131 -0.275790 0.637801
vn -0.719131 -0.275790 0.637801
vn -0.719131 -0.275790 0.637801
vn -0.310142 0.008533 0.950652
vn -0.310142 0.008533 0.950652
vn -0.310142 0.008533 0.950652
vn -0.310142 0.008533 0.950652
vn 0.725998 0.103920 0.679800
vn 0.725998 0.103920 0.679800
vn 0.725998 0.103920 0.679800
vn 0.725998 0.103920 0.679800
vn 0.577971 0.286740 -0.764022
vn 0.577971 0.286740 -0.764022
vn 0.577971 0.286740 -0.764022
vn 0.577971 0.286740 -0.764022
vn 0.000000 0.412765 -0.910838
vn 0.000000 0.412765 -0.910838
vn 0.000000 0.412765 -0.910838
vn -0.671336 0.251164 -0.697298
vn -0.671336 0.251164 -0.697298
vn -0.671336 0.251164 -0.697298
vn -0.501806 0.220588 0.836380
vn -0.501806 0.220588 0.836380
vn -0.501806 0.220588 0.836380
vn -0.340719 0.221588 0.913679
vn -0.340719 0.221588 0.913679
vn -0.340719 0.221588 0.913679
vn 0.414940 0.699703 -0.581585
vn 0.414940 0.699703 -0.581585
vn 0.414940 0.699703 -0.581585
vn 0.305886 0.543760 -0.781511
vn 0.305886 0.543760 -0.781511
vn 0.305886 0.543760 -0.781511
s off
g pSphere7
usemtl initialShadingGroup
f 1/1/1 2/2/2 8/3/3 7/4/4
f 2/2/5 3/5/6 9/31/7 8/3/8
f 3/33/9 4/7/10 10/8/11 9/6/12
f 4/7/13 5/9/14 11/10/15 10/8/16
f 5/9/17 6/11/18 12/30/19 11/10/20
f 6/32/21 1/1/22 7/4/23 12/12/24
f 7/4/25 8/3/26 14/13/27 13/14/28
f 8/3/29 9/31/30 15/28/31 14/13/32
f 9/6/33 10/8/34 16/16/35 15/15/36
f 10/8/37 11/10/38 17/17/39 16/16/40
f 11/10/41 12/30/42 18/26/43 17/17/44
f 12/12/45 7/4/46 13/14/47 18/18/48
f 13/14/49 14/13/50 20/39/51 19/37/52
f 14/13/53 15/28/54 21/38/55 20/39/56
f 15/15/57 16/16/58 22/35/59 21/29/60
f 16/16/61 17/17/62 23/34/63 22/35/64
f 17/17/65 18/26/66 24/27/67 23/34/68
f 18/18/69 13/14/70 19/37/71 24/36/72
f 19/20/73 20/19/74 25/25/75
f 20/19/76 21/21/77 25/25/78
f 21/21/79 22/22/80 25/25/81
f 22/22/82 23/23/83 25/25/84
f 23/23/85 24/24/86 25/25/87
f 24/24/88 19/20/89 25/25/90
