# This file uses centimeters as units for non-parametric coordinates.

mtllib tronco2.mtl
g default
v 3.382590 1.296135 -0.661154
v 3.382590 0.580709 -0.824445
v 3.382590 0.006981 -0.366913
v 3.382590 0.006981 0.366913
v 3.382590 0.580708 0.824445
v 3.382590 1.296135 0.661154
v 3.382590 1.614530 0.000000
v -3.382590 1.296135 -0.661154
v -3.382590 0.580709 -0.824445
v -3.382590 0.006981 -0.366913
v -3.382590 0.006981 0.366913
v -3.382590 0.580708 0.824445
v -3.382590 1.296135 0.661154
v -3.382590 1.614530 0.000000
v 3.382590 1.157731 -0.487600
v 3.382590 0.630104 -0.608028
v 3.382590 0.206981 -0.270598
v 3.382590 0.206981 0.270598
v 3.382590 0.630104 0.608028
v 3.382590 1.157731 0.487600
v 3.382590 1.392547 -0.000000
v -3.382590 1.157731 -0.487600
v -3.382590 0.630104 -0.608028
v -3.382590 0.206981 -0.270598
v -3.382590 0.206981 0.270598
v -3.382590 0.630104 0.608028
v -3.382590 1.157731 0.487600
v -3.382590 1.392547 -0.000000
v 3.284898 1.157731 -0.487600
v 3.284898 0.630104 -0.608028
v 3.284898 0.768883 0.000000
v 3.284898 0.206981 -0.270598
v 3.284898 0.206981 0.270598
v 3.284898 0.630104 0.608028
v 3.284898 1.157731 0.487600
v 3.284898 1.392547 -0.000000
v -3.288154 1.157731 -0.487600
v -3.288154 0.630104 -0.608028
v -3.288154 0.768883 0.000000
v -3.288154 0.206981 -0.270598
v -3.288154 0.206981 0.270598
v -3.288154 0.630104 0.608028
v -3.288154 1.157731 0.487600
v -3.288154 1.392547 -0.000000
v -2.585983 1.296135 -0.661154
v -2.585983 0.580709 -0.824445
v -2.585983 0.006981 -0.366913
v -2.585983 0.006981 0.366913
v -2.585983 0.580708 0.824445
v -2.688713 1.361363 0.525706
v -2.669562 1.557611 0.118194
v -2.319988 1.296135 -0.661154
v -2.319988 0.580709 -0.824445
v -2.319988 0.006981 -0.366913
v -2.319988 0.006981 0.366913
v -2.319988 0.580708 0.824445
v -2.236408 1.353054 0.542960
v -2.217258 1.549302 0.135448
v -2.772813 1.461208 0.318376
v -2.466527 1.316565 0.618732
v -2.439444 1.594101 0.042422
v -2.133157 1.449457 0.342777
v -2.309639 1.387637 0.471148
v -2.241300 1.451444 0.338652
v -2.296963 1.517528 0.201426
v -2.444023 1.547179 0.139855
v -2.596332 1.523028 0.190006
v -2.664671 1.459221 0.322502
v -2.609007 1.393137 0.459728
v -2.461948 1.363486 0.521299
v -2.390586 1.715627 0.611769
v -2.347385 1.755962 0.528011
v -2.382573 1.797738 0.441263
v -2.475537 1.816482 0.402341
v -2.571820 1.801214 0.434044
v -2.615021 1.760879 0.517802
v -2.579833 1.719103 0.604549
v -2.486869 1.700359 0.643472
v -2.481203 1.758420 0.522906
vt 0.597420 0.034089
vt 0.465231 0.003918
vt 0.359224 0.088456
vt 0.359224 0.224044
vt 0.465231 0.308582
vt 0.597420 0.278411
vt 0.656250 0.156250
vt 0.375000 0.312500
vt 0.410714 0.312500
vt 0.446429 0.312500
vt 0.482143 0.312500
vt 0.517857 0.312500
vt 0.553571 0.312500
vt 0.589286 0.312500
vt 0.625000 0.312500
vt 0.375000 0.688440
vt 0.410714 0.688440
vt 0.446429 0.688440
vt 0.482143 0.688440
vt 0.517857 0.688440
vt 0.553571 0.688440
vt 0.589286 0.688440
vt 0.625000 0.688440
vt 0.597420 0.721589
vt 0.465231 0.691418
vt 0.359224 0.775956
vt 0.359224 0.911544
vt 0.465231 0.996082
vt 0.597420 0.965911
vt 0.656250 0.843750
vt 0.500000 0.150000
vt 0.500000 0.837500
vt 0.465231 0.003918
vt 0.597420 0.034089
vt 0.359224 0.088456
vt 0.359224 0.224044
vt 0.465231 0.308582
vt 0.597420 0.278411
vt 0.656250 0.156250
vt 0.597420 0.965911
vt 0.465231 0.996082
vt 0.359224 0.911544
vt 0.359224 0.775956
vt 0.465231 0.691418
vt 0.597420 0.721589
vt 0.656250 0.843750
vt 0.465231 0.003918
vt 0.597420 0.034089
vt 0.359224 0.088456
vt 0.359224 0.224044
vt 0.465231 0.308582
vt 0.597420 0.278411
vt 0.656250 0.156250
vt 0.597420 0.965911
vt 0.465231 0.996082
vt 0.359224 0.911544
vt 0.359224 0.775956
vt 0.465231 0.691418
vt 0.597420 0.721589
vt 0.656250 0.843750
vt 0.625000 0.644173
vt 0.375000 0.644173
vt 0.410714 0.644173
vt 0.446429 0.644173
vt 0.482143 0.644173
vt 0.517857 0.644173
vt 0.553571 0.644173
vt 0.589286 0.644173
vt 0.625000 0.629391
vt 0.375000 0.629391
vt 0.410714 0.629391
vt 0.446429 0.629391
vt 0.482143 0.629391
vt 0.517857 0.629391
vt 0.553571 0.629391
vt 0.589286 0.629391
vt 0.571429 0.644173
vt 0.553571 0.636782
vt 0.589286 0.636782
vt 0.571429 0.629391
vt 0.553571 0.629391
vt 0.571429 0.629391
vt 0.589286 0.629391
vt 0.589286 0.636782
vt 0.589286 0.644173
vt 0.571429 0.644173
vt 0.553571 0.644173
vt 0.553571 0.636782
vt 0.553571 0.629391
vt 0.571429 0.629391
vt 0.589286 0.629391
vt 0.589286 0.636782
vt 0.589286 0.644173
vt 0.571429 0.644173
vt 0.553571 0.644173
vt 0.553571 0.636782
vt 0.571429 0.636782
vn 0.000000 0.222521 -0.974928
vn 0.000000 0.222521 -0.974928
vn 0.000000 0.222521 -0.974928
vn 0.000000 0.222521 -0.974928
vn -0.000000 -0.623490 -0.781832
vn -0.000000 -0.623490 -0.781832
vn -0.000000 -0.623490 -0.781832
vn -0.000000 -0.623490 -0.781832
vn -0.000000 -1.000000 -0.000000
vn -0.000000 -1.000000 -0.000000
vn -0.000000 -1.000000 -0.000000
vn -0.000000 -1.000000 -0.000000
vn 0.000000 -0.623490 0.781831
vn 0.000000 -0.623490 0.781831
vn 0.000000 -0.623490 0.781831
vn 0.000000 -0.623490 0.781831
vn 0.040015 0.299785 0.953167
vn 0.048968 0.299574 0.952816
vn 0.073385 0.298877 0.951466
vn 0.073385 0.298877 0.951466
vn 0.000000 0.900969 0.433883
vn 0.000000 0.900969 0.433884
vn 0.000000 0.900969 0.433884
vn 0.051621 0.928863 -0.366809
vn 0.048189 0.929346 -0.366053
vn 0.063880 0.927043 -0.369473
vn 0.063880 0.927043 -0.369473
vn 1.000000 0.000000 0.000000
vn 1.000000 0.000000 0.000000
vn 1.000000 0.000000 0.000000
vn 1.000000 0.000000 0.000000
vn 1.000000 0.000000 0.000000
vn 1.000000 0.000000 0.000000
vn 1.000000 0.000000 -0.000000
vn 1.000000 0.000000 0.000000
vn -1.000000 0.000000 0.000000
vn -1.000000 0.000000 -0.000000
vn -1.000000 0.000000 0.000000
vn -1.000000 0.000000 -0.000000
vn -1.000000 0.000000 0.000000
vn -1.000000 0.000000 0.000000
vn -1.000000 0.000000 0.000000
vn -1.000000 0.000000 0.000000
vn 1.000000 0.000000 0.000000
vn 1.000000 0.000000 0.000000
vn 1.000000 0.000000 0.000000
vn 1.000000 0.000000 0.000000
vn 1.000000 0.000000 0.000000
vn 1.000000 0.000000 0.000000
vn 1.000000 0.000000 0.000000
vn 1.000000 0.000000 0.000000
vn 1.000000 0.000000 0.000000
vn 1.000000 0.000000 0.000000
vn 1.000000 0.000000 0.000000
vn 1.000000 0.000000 0.000000
vn 1.000000 0.000000 0.000000
vn 1.000000 0.000000 0.000000
vn -1.000000 0.000000 0.000000
vn -1.000000 0.000000 0.000000
vn -1.000000 0.000000 0.000000
vn -1.000000 0.000000 0.000000
vn -1.000000 0.000000 0.000000
vn -1.000000 0.000000 0.000000
vn -1.000000 0.000000 0.000000
vn -1.000000 0.000000 0.000000
vn -1.000000 0.000000 0.000000
vn -1.000000 0.000000 0.000000
vn -1.000000 0.000000 0.000000
vn -1.000000 0.000000 0.000000
vn -1.000000 0.000000 0.000000
vn -1.000000 0.000000 0.000000
vn 0.000000 -0.222521 0.974928
vn 0.000000 -0.222521 0.974928
vn 0.000000 -0.222521 0.974928
vn 0.000000 -0.222521 0.974928
vn 0.000000 0.623489 0.781832
vn 0.000000 0.623489 0.781832
vn 0.000000 0.623489 0.781832
vn 0.000000 0.623489 0.781832
vn 0.000000 1.000000 0.000000
vn 0.000000 1.000000 0.000000
vn 0.000000 1.000000 0.000000
vn 0.000000 1.000000 0.000000
vn 0.000000 0.623490 -0.781832
vn 0.000000 0.623490 -0.781832
vn 0.000000 0.623490 -0.781832
vn 0.000000 0.623490 -0.781832
vn -0.000000 -0.222521 -0.974928
vn -0.000000 -0.222521 -0.974928
vn -0.000000 -0.222521 -0.974928
vn -0.000000 -0.222521 -0.974928
vn -0.000000 -0.900969 -0.433883
vn -0.000000 -0.900969 -0.433883
vn -0.000000 -0.900969 -0.433883
vn -0.000000 -0.900969 -0.433883
vn 0.000000 -0.900969 0.433883
vn 0.000000 -0.900969 0.433883
vn 0.000000 -0.900969 0.433883
vn 0.000000 -0.900969 0.433883
vn 0.000000 -0.222521 0.974928
vn 0.000000 -0.222521 0.974928
vn 0.000000 -0.222521 0.974928
vn 0.000000 -0.222521 0.974928
vn 0.000000 0.623490 0.781831
vn 0.000000 0.623490 0.781831
vn 0.000000 0.623490 0.781831
vn 0.000000 0.623490 0.781831
vn 0.000000 1.000000 0.000000
vn 0.000000 1.000000 0.000000
vn 0.000000 1.000000 0.000000
vn 0.000000 1.000000 0.000000
vn 0.000000 0.623490 -0.781831
vn 0.000000 0.623490 -0.781831
vn 0.000000 0.623490 -0.781831
vn 0.000000 0.623490 -0.781831
vn -0.000000 -0.222521 -0.974928
vn -0.000000 -0.222521 -0.974928
vn -0.000000 -0.222521 -0.974928
vn -0.000000 -0.222521 -0.974928
vn -0.000000 -0.900969 -0.433884
vn -0.000000 -0.900969 -0.433884
vn -0.000000 -0.900969 -0.433884
vn -0.000000 -0.900969 -0.433884
vn 0.000000 -0.900969 0.433884
vn 0.000000 -0.900969 0.433884
vn 0.000000 -0.900969 0.433884
vn 0.000000 -0.900969 0.433884
vn 0.000000 0.222521 -0.974928
vn 0.000000 0.222521 -0.974928
vn -0.000000 -0.623490 -0.781832
vn -0.000000 -0.623490 -0.781832
vn -0.000000 -1.000000 -0.000000
vn -0.000000 -1.000000 -0.000000
vn 0.000000 -0.623490 0.781831
vn 0.000000 -0.623490 0.781831
vn -0.009300 0.287798 0.957646
vn -0.009052 0.287484 0.957743
vn -0.019428 0.300570 0.953562
vn -0.000000 0.900969 0.433883
vn -0.000001 0.900969 0.433883
vn -0.000000 0.900969 0.433883
vn -0.008522 0.931275 -0.364218
vn -0.007715 0.931333 -0.364087
vn 0.019428 0.932927 -0.359541
vn 0.000000 0.222521 -0.974928
vn 0.000000 0.222521 -0.974928
vn -0.000000 -0.623490 -0.781832
vn -0.000000 -0.623490 -0.781832
vn -0.000000 -1.000000 -0.000000
vn -0.000000 -1.000000 -0.000000
vn 0.000000 -0.623490 0.781831
vn 0.000000 -0.623490 0.781831
vn -0.008558 0.286860 0.957934
vn -0.008558 0.286860 0.957934
vn 0.000000 0.900969 0.433884
vn 0.000000 0.900969 0.433884
vn 0.000000 0.900969 0.433884
vn 0.000000 0.900969 0.433884
vn -0.009741 0.931185 -0.364416
vn -0.009741 0.931185 -0.364416
vn 0.000000 0.900969 0.433884
vn -0.000000 0.900969 0.433884
vn 0.000000 0.900969 0.433884
vn -0.000000 0.900969 0.433884
vn -0.000000 0.900969 0.433884
vn -0.000000 0.900969 0.433884
vn -0.000000 0.900969 0.433884
vn -0.000000 0.900969 0.433884
vn 0.000000 0.900969 0.433884
vn 0.000000 0.900969 0.433884
vn -0.000000 0.900969 0.433884
vn -0.000000 0.900969 0.433884
vn 0.884867 0.018823 0.465463
vn 0.884867 0.018823 0.465463
vn 0.884867 0.018823 0.465463
vn 0.884867 0.018823 0.465463
vn 0.895454 0.413877 -0.163914
vn 0.895454 0.413877 -0.163914
vn 0.895454 0.413877 -0.163914
vn 0.895454 0.413877 -0.163914
vn 0.398797 0.663587 -0.632940
vn 0.398797 0.663587 -0.632940
vn 0.398797 0.663587 -0.632940
vn 0.398797 0.663587 -0.632940
vn -0.330126 0.638760 -0.694983
vn -0.330126 0.638760 -0.694983
vn -0.330126 0.638760 -0.694983
vn -0.330126 0.638760 -0.694983
vn -0.892587 0.339213 -0.297024
vn -0.892587 0.339213 -0.297024
vn -0.892587 0.339213 -0.297024
vn -0.892587 0.339213 -0.297024
vn -0.935675 -0.069920 0.345867
vn -0.935675 -0.069920 0.345867
vn -0.935675 -0.069920 0.345867
vn -0.935675 -0.069920 0.345867
vn -0.420606 -0.336650 0.842471
vn -0.420606 -0.336650 0.842471
vn -0.420606 -0.336650 0.842471
vn -0.420606 -0.336650 0.842471
vn 0.340852 -0.298137 0.891591
vn 0.340852 -0.298137 0.891591
vn 0.340852 -0.298137 0.891591
vn 0.340852 -0.298137 0.891591
vn 0.000000 0.900969 0.433884
vn 0.000000 0.900969 0.433883
vn 0.000000 0.900969 0.433883
vn -0.000000 0.900969 0.433883
vn -0.000001 0.900969 0.433883
vn 0.000000 0.900969 0.433884
vn -0.000001 0.900970 0.433882
s 1
g pCylinder2
usemtl initialShadingGroup
f 45/62/1 46/63/2 9/17/3 8/16/4
s 2
f 46/63/5 47/64/6 10/18/7 9/17/8
s 3
f 47/64/9 48/65/10 11/19/11 10/18/12
s 4
f 48/65/13 49/66/14 12/20/15 11/19/16
s 5
f 49/66/17 50/67/18 13/21/19 12/20/20
s 6
f 50/67/21 59/77/22 13/21/23
s 7
f 51/68/24 45/61/25 8/23/26 14/22/27
s 8
f 30/47/28 29/48/29 31/31/30
f 32/49/31 30/47/28 31/31/30
f 33/50/32 32/49/31 31/31/30
f 34/51/33 33/50/32 31/31/30
f 35/52/34 34/51/33 31/31/30
f 36/53/35 35/52/34 31/31/30
f 29/48/29 36/53/35 31/31/30
s 9
f 37/54/36 38/55/37 39/32/38
f 38/55/37 40/56/39 39/32/38
f 40/56/39 41/57/40 39/32/38
f 41/57/40 42/58/41 39/32/38
f 42/58/41 43/59/42 39/32/38
f 43/59/42 44/60/43 39/32/38
f 44/60/43 37/54/36 39/32/38
s 10
f 2/2/44 1/1/45 15/34/46 16/33/47
f 3/3/48 2/2/44 16/33/47 17/35/49
f 4/4/50 3/3/48 17/35/49 18/36/51
f 5/5/52 4/4/50 18/36/51 19/37/53
f 6/6/54 5/5/52 19/37/53 20/38/55
f 7/7/56 6/6/54 20/38/55 21/39/57
f 1/1/45 7/7/56 21/39/57 15/34/46
s 11
f 8/29/58 9/28/59 23/41/60 22/40/61
f 9/28/59 10/27/62 24/42/63 23/41/60
f 10/27/62 11/26/64 25/43/65 24/42/63
f 11/26/64 12/25/66 26/44/67 25/43/65
f 12/25/66 13/24/68 27/45/69 26/44/67
f 13/24/68 14/30/70 28/46/71 27/45/69
f 14/30/70 8/29/58 22/40/61 28/46/71
s off
f 16/33/72 15/34/73 29/48/74 30/47/75
f 17/35/76 16/33/77 30/47/78 32/49/79
f 18/36/80 17/35/81 32/49/82 33/50/83
f 19/37/84 18/36/85 33/50/86 34/51/87
f 20/38/88 19/37/89 34/51/90 35/52/91
f 21/39/92 20/38/93 35/52/94 36/53/95
f 15/34/96 21/39/97 36/53/98 29/48/99
f 22/40/100 23/41/101 38/55/102 37/54/103
f 23/41/104 24/42/105 40/56/106 38/55/107
f 24/42/108 25/43/109 41/57/110 40/56/111
f 25/43/112 26/44/113 42/58/114 41/57/115
f 26/44/116 27/45/117 43/59/118 42/58/119
f 27/45/120 28/46/121 44/60/122 43/59/123
f 28/46/124 22/40/125 37/54/126 44/60/127
s 1
f 52/70/128 53/71/129 46/63/2 45/62/1
s 2
f 53/71/130 54/72/131 47/64/6 46/63/5
s 3
f 54/72/132 55/73/133 48/65/10 47/64/9
s 4
f 55/73/134 56/74/135 49/66/14 48/65/13
s 5
f 56/74/136 57/75/137 60/78/138 50/67/18 49/66/17
s 12
f 71/89/139 72/90/140 79/97/141
s 7
f 58/76/142 52/69/143 45/61/25 51/68/24 61/79/144
s 1
f 1/8/145 2/9/146 53/71/129 52/70/128
s 2
f 2/9/147 3/10/148 54/72/131 53/71/130
s 3
f 3/10/149 4/11/150 55/73/133 54/72/132
s 4
f 4/11/151 5/12/152 56/74/135 55/73/134
s 5
f 5/12/153 6/13/154 57/75/137 56/74/136
s 6
f 6/13/155 7/14/156 58/76/157 62/80/158
s 7
f 7/14/159 1/15/160 52/69/143 58/76/142
s 6
f 57/75/161 62/80/158 64/82/162 63/81/163
f 62/80/158 58/76/157 65/83/164 64/82/162
f 58/76/157 61/79/165 66/84/166 65/83/164
f 61/79/165 51/68/167 67/85/168 66/84/166
f 51/68/167 59/77/22 68/86/169 67/85/168
f 59/77/22 50/67/21 69/87/170 68/86/169
f 50/67/21 60/78/171 70/88/172 69/87/170
f 60/78/171 57/75/161 63/81/163 70/88/172
s off
f 63/81/173 64/82/174 72/90/175 71/89/176
f 64/82/177 65/83/178 73/91/179 72/90/180
f 65/83/181 66/84/182 74/92/183 73/91/184
f 66/84/185 67/85/186 75/93/187 74/92/188
f 67/85/189 68/86/190 76/94/191 75/93/192
f 68/86/193 69/87/194 77/95/195 76/94/196
f 69/87/197 70/88/198 78/96/199 77/95/200
f 70/88/201 63/81/202 71/89/203 78/96/204
s 6
f 13/21/23 59/77/22 51/68/167 14/22/205
f 6/13/155 62/80/158 57/75/161
s 12
f 78/96/206 79/97/141 77/95/207
f 79/97/141 72/90/140 73/91/208
f 75/93/209 79/97/141 74/92/210
f 76/94/211 79/97/141 75/93/209
f 71/89/139 79/97/141 78/96/206
f 79/97/141 73/91/208 74/92/210
f 77/95/207 79/97/141 76/94/211
