# This file uses centimeters as units for non-parametric coordinates.

mtllib centro.mtl
g default
v -2.244133 -2.244133 2.244133
v 2.244133 -2.244133 2.244133
v -2.244133 2.244133 -8.403386
v 2.244133 2.244133 -8.403386
v -2.244133 0.989268 2.244133
v 2.244133 0.989268 2.244133
v -2.244133 1.619489 1.858966
v -2.244133 2.244133 1.616763
v 2.244133 2.244133 1.616763
v 2.244133 1.616763 1.991662
vt 0.400957 0.151366
vt 0.586629 0.151366
vt 0.586629 0.177325
vt 0.400957 0.177325
vt 0.400957 0.229231
vt 0.586629 0.229231
vt 0.586629 0.388951
vt 0.400957 0.388951
vt 0.400957 0.017606
vt 0.586629 0.017606
vn -0.013046 0.452150 0.891847
vn -0.013046 0.452150 0.891847
vn -0.013046 0.452150 0.891847
vn -0.013046 0.452150 0.891847
vn 0.000000 1.000000 0.000000
vn 0.000000 1.000000 0.000000
vn 0.000000 1.000000 0.000000
vn 0.000000 1.000000 0.000000
vn 0.000000 0.000000 1.000000
vn 0.000000 0.000000 1.000000
vn 0.000000 0.000000 1.000000
vn 0.000000 0.000000 1.000000
vn -0.013124 0.442064 0.896888
vn -0.013124 0.442064 0.896888
vn -0.013124 0.442064 0.896888
vn -0.013124 0.442064 0.896888
s off
g pCube5 pCube1
usemtl initialShadingGroup
f 5/1/1 6/2/2 10/3/3 7/4/4
f 8/5/5 9/6/6 4/7/7 3/8/8
f 1/9/9 2/10/10 6/2/11 5/1/12
f 8/5/13 7/4/14 10/3/15 9/6/16
