# This file uses centimeters as units for non-parametric coordinates.

mtllib esquina-inferior-derecha.mtl
g default
v 2.257591 -5.317561 5.317864
v -2.230678 -5.317561 5.317864
v 2.257591 -9.805828 -5.329656
v -2.230678 -9.805828 -5.329656
v 2.257591 -5.317561 -5.329656
v -2.230678 -8.531708 5.317864
v 2.257591 -8.531708 5.317864
v 2.257591 -8.531709 -5.329656
v 2.257591 -9.168832 5.317864
v 2.257591 -9.805828 4.680867
v -2.230678 -9.168832 5.065392
v -2.230678 -9.805828 4.680867
v 2.257591 -9.168768 -5.329656
v -2.230678 -9.805828 -0.324395
v 2.257591 -9.805828 -0.324395
v 2.257591 -9.168800 -0.005896
v 2.257591 -8.531708 -0.005896
v 2.257591 -5.317561 -0.005896
vt 0.387951 0.470526
vt 0.388196 0.442553
vt 0.571608 0.447994
vt 0.544160 0.974792
vt 0.388043 0.412192
vt 0.386945 0.207905
vt 0.540667 0.769065
vt 0.504006 0.943154
vt 0.560502 0.784768
vt 0.656041 0.998008
vt 0.385482 0.601703
vt 0.582664 0.789391
vt 0.694480 0.812617
vt 0.385893 0.003606
vt 0.569082 0.002673
vt 0.598985 0.599682
vt 0.621128 0.604278
vt 0.732862 0.627460
vt 0.570131 0.206944
vt 0.576854 0.595085
vt 0.568650 0.605173
vt 0.571114 0.473991
vt 0.571221 0.411215
vt 0.521500 0.969988
vn -0.027579 -0.194282 0.980558
vn -0.027579 -0.194282 0.980558
vn -0.027579 -0.194282 0.980558
vn -0.027579 -0.194282 0.980558
vn 0.000000 -1.000000 0.000000
vn 0.000000 -1.000000 0.000000
vn 0.000000 -1.000000 0.000000
vn 0.000000 -1.000000 0.000000
vn 1.000000 -0.000000 0.000000
vn 1.000000 -0.000001 0.000000
vn 1.000000 -0.000001 0.000000
vn 1.000000 -0.000001 0.000000
vn 0.000000 0.000000 1.000000
vn 0.000000 0.000000 1.000000
vn 0.000000 0.000000 1.000000
vn 0.000000 0.000000 1.000000
vn 1.000000 0.000000 0.000000
vn 1.000000 0.000000 0.000000
vn 1.000000 0.000000 0.000000
vn 1.000000 0.000000 0.000000
vn -0.021938 -0.625414 0.779985
vn -0.021938 -0.625414 0.779985
vn -0.021938 -0.625413 0.779985
vn -0.021938 -0.625414 0.779985
vn 1.000000 0.000000 0.000000
vn 1.000000 0.000000 0.000000
vn 0.000000 -1.000000 0.000000
vn 0.000000 -1.000000 0.000000
vn 1.000000 -0.000001 0.000000
vn 1.000000 -0.000001 0.000000
vn 1.000000 0.000000 0.000000
vn 1.000000 0.000000 0.000000
vn 1.000000 0.000000 0.000000
s off
g pCube14
usemtl lambert4SG
f 6/1/1 11/2/2 9/3/3 7/22/4
s 1
f 12/5/5 14/6/6 15/19/7 10/23/8
s 2
f 9/24/9 10/8/10 15/7/11 16/9/12
s off
f 1/21/13 2/11/14 6/1/15 7/22/16
s 3
f 17/12/17 18/13/18 1/10/19 7/4/20
s off
f 9/3/21 11/2/22 12/5/23 10/23/24
s 2
f 7/4/25 9/24/9 16/9/12 17/12/26
s 1
f 15/19/7 14/6/6 4/14/27 3/15/28
s 2
f 16/9/12 15/7/11 3/20/29 13/16/30
f 17/12/26 16/9/12 13/16/30 8/17/31
s 3
f 5/18/32 18/13/18 17/12/17 8/17/33
