# This file uses centimeters as units for non-parametric coordinates.

mtllib esquina-inferior-izquierda.mtl
g default
v -6.774091 -5.293027 2.244133
v -2.285822 -5.293027 2.244133
v -6.774092 -9.781294 -8.358146
v -2.285822 -9.781294 -8.403386
v -6.774092 -5.293027 -8.403387
v -6.774092 -8.534162 -8.403386
v -6.774092 -8.534162 2.244133
v -2.285822 -8.534162 2.244133
v -6.774091 -9.157790 2.244133
v -6.774092 -9.781294 1.620629
v -2.285822 -9.781294 1.620629
v -2.285822 -9.157789 1.858966
v -6.774092 -9.138321 -8.381470
v -6.774092 -9.781294 -3.368758
v -2.285822 -9.781294 -3.391378
v -6.774091 -9.148056 -3.068668
v -6.774092 -8.534162 -3.079626
v -6.774091 -5.293027 -3.079627
vt 0.665256 0.003304
vt 0.630586 0.001992
vt 0.185574 0.439492
vt 0.185497 0.469440
vt 0.002340 0.411275
vt 0.584109 0.312738
vt 0.186770 0.207447
vt 0.185713 0.412220
vt 0.642855 0.595273
vt 0.609314 0.592783
vt 0.619949 0.297387
vt 0.654053 0.299286
vt 0.823050 0.602091
vt 0.834253 0.306107
vt 0.004556 0.605173
vt 0.187903 0.601841
vt 0.573616 0.590133
vt 0.187824 0.002673
vt 0.003390 0.207426
vt 0.004441 0.003577
vt 0.001688 0.447295
vt 0.594609 0.035345
vt 0.845452 0.010123
vt 0.002150 0.472770
vn 0.040964 -0.294815 0.954676
vn 0.040964 -0.294815 0.954676
vn 0.040964 -0.294815 0.954676
vn 0.040964 -0.294815 0.954676
vn 0.000000 -1.000000 0.000000
vn 0.000000 -1.000000 0.000000
vn 0.000000 -1.000000 0.000000
vn 0.000000 -1.000000 0.000000
vn -1.000000 -0.000001 0.000000
vn -1.000000 -0.000001 0.000000
vn -1.000000 -0.000000 0.000000
vn -1.000000 -0.000002 0.000000
vn -1.000000 0.000000 0.000000
vn -1.000000 0.000000 0.000000
vn -1.000000 0.000000 0.000000
vn -1.000000 0.000000 0.000000
vn 0.000000 0.000000 1.000000
vn 0.000000 0.000000 1.000000
vn 0.000000 0.000000 1.000000
vn 0.000000 0.000000 1.000000
vn 0.035276 -0.568199 0.822135
vn 0.035276 -0.568199 0.822135
vn 0.035276 -0.568199 0.822135
vn 0.035276 -0.568199 0.822135
vn -1.000000 0.000000 0.000000
vn -1.000000 0.000001 0.000000
vn 0.000000 -1.000000 0.000000
vn 0.000000 -1.000000 0.000000
vn -1.000000 0.000002 0.000000
vn -1.000000 -0.000002 0.000000
vn -1.000000 -0.000003 0.000000
vn -1.000000 0.000001 0.000000
vn -1.000000 0.000001 0.000000
s off
g pCube11
usemtl lambert4SG
f 7/24/1 9/21/2 12/3/3 8/4/4
s 1
f 10/5/5 14/19/6 15/7/7 11/8/8
s 2
f 6/9/9 13/10/10 16/11/11 17/12/12
s 3
f 5/13/13 6/9/14 17/12/15 18/14/16
s off
f 1/15/17 7/24/18 8/4/19 2/16/20
f 10/5/21 11/8/22 12/3/23 9/21/24
s 2
f 13/10/10 3/17/25 14/6/26 16/11/11
s 1
f 15/7/7 14/19/6 3/20/27 4/18/28
s 2
f 16/11/11 14/6/26 10/22/29 9/2/30
f 17/12/12 16/11/11 9/2/30 7/1/31
s 3
f 18/14/16 17/12/15 7/1/32 1/23/33
