# This file uses centimeters as units for non-parametric coordinates.

mtllib esquina izquierda.mtl
g default
v -6.774091 -2.244134 2.244133
v -2.285822 -2.244134 2.244133
v -6.774092 2.244133 -8.358146
v -2.285822 2.244133 -8.403386
v -6.774092 -2.244134 -8.403387
v -6.774092 0.997001 -8.403386
v -6.774092 0.997001 2.244133
v -2.285822 0.997001 2.244133
v -6.774091 1.620629 2.244133
v -6.774092 2.244133 1.620629
v -2.285822 2.244133 1.620629
v -2.285822 1.620629 1.858966
v -6.774092 1.601159 -8.381470
v -6.774091 -2.244134 -3.079626
v -6.774092 0.997001 -3.079626
v -6.774091 1.610894 -3.068668
v -6.774092 2.244133 -3.368758
v -2.285822 2.244133 -3.391378
vt 0.758269 0.002272
vt 0.004344 0.483332
vt 0.004257 0.452550
vt 0.800131 0.015519
vt 0.191458 0.213978
vt 0.002976 0.214052
vt 0.001842 0.003573
vt 0.190331 0.004459
vt 0.759954 0.559020
vt 0.754424 0.286232
vt 0.786037 0.286053
vt 0.790935 0.557106
vt 0.592403 0.562919
vt 0.585299 0.286784
vt 0.585294 0.002368
vt 0.001903 0.619419
vt 0.192588 0.423506
vt 0.004107 0.424519
vt 0.818163 0.301677
vt 0.823732 0.555080
vt 0.193265 0.460529
vt 0.830116 0.048822
vt 0.192796 0.486712
vt 0.190354 0.622800
vn 0.040963 0.294815 0.954676
vn 0.040963 0.294815 0.954676
vn 0.040963 0.294815 0.954676
vn 0.040963 0.294814 0.954676
vn 0.000000 1.000000 0.000000
vn 0.000000 1.000000 0.000000
vn 0.000000 1.000000 0.000000
vn 0.000000 1.000000 0.000000
vn -1.000000 0.000001 0.000000
vn -1.000000 0.000001 0.000000
vn -1.000000 -0.000000 0.000000
vn -1.000000 0.000000 0.000000
vn -1.000000 -0.000000 0.000000
vn -1.000000 -0.000000 0.000000
vn -1.000000 -0.000000 0.000000
vn -1.000000 -0.000000 0.000000
vn 0.000000 0.000000 1.000000
vn 0.000000 0.000000 1.000000
vn 0.000000 0.000000 1.000000
vn 0.000000 0.000000 1.000000
vn 0.035276 0.568199 0.822134
vn 0.035276 0.568200 0.822134
vn 0.035276 0.568200 0.822134
vn 0.035276 0.568199 0.822134
vn -1.000000 -0.000001 0.000000
vn -1.000000 -0.000001 0.000000
vn -1.000000 -0.000000 0.000000
vn -1.000000 -0.000000 0.000000
vn -1.000000 0.000002 -0.000000
vn -1.000000 0.000001 -0.000000
vn -1.000000 -0.000002 0.000000
vn 0.000000 1.000000 0.000000
vn 0.000000 1.000000 0.000000
s off
g pCube7 pCube7 pCube2
usemtl lambert2SG
f 7/23/1 8/2/2 12/3/3 9/21/4
s 1
f 17/5/5 18/6/6 4/7/7 3/8/8
s 2
f 6/9/9 15/10/10 16/11/11 13/12/12
s 3
f 5/13/13 14/14/14 15/10/15 6/9/16
s off
f 1/24/17 2/16/18 8/2/19 7/23/20
f 10/17/21 9/21/22 12/3/23 11/18/24
s 2
f 13/12/12 16/11/11 17/19/25 3/20/26
s 3
f 15/10/15 14/14/14 1/15/27 7/1/28
s 2
f 16/11/11 15/10/10 7/1/29 9/4/30
f 17/19/25 16/11/11 9/4/30 10/22/31
s 1
f 10/17/32 11/18/33 18/6/6 17/5/5
