# This file uses centimeters as units for non-parametric coordinates.

mtllib medio-inferior-mirroreado.mtl
g default
v 2.259101 -5.310841 5.286374
v -2.229163 -5.310841 5.286374
v 2.259101 -9.799108 -5.361146
v -2.229163 -9.799108 -5.361146
v 2.259101 -8.544241 5.286374
v -2.229163 -8.544241 5.286374
v 2.259101 -9.174464 4.901207
v 2.259101 -9.799108 4.659004
v -2.229163 -9.799108 4.659004
v -2.229163 -9.171739 5.033902
v -2.229163 -9.799108 -0.351071
v 2.259101 -9.799108 -0.351071
vt 0.307748 0.779502
vt 0.004442 0.774227
vt 0.005239 0.728517
vt 0.308717 0.729588
vt 0.309491 0.684315
vt 0.006189 0.679131
vt 0.011965 0.340557
vt 0.315290 0.345750
vt 0.303947 0.998008
vt 0.000641 0.992733
vt 0.017764 0.001992
vt 0.321068 0.007176
vn 0.013046 -0.452148 0.891847
vn 0.013046 -0.452148 0.891847
vn 0.013046 -0.452148 0.891847
vn 0.013046 -0.452148 0.891847
vn 0.000000 -1.000000 0.000000
vn 0.000000 -1.000000 0.000000
vn 0.000000 -1.000000 0.000000
vn 0.000000 -1.000000 0.000000
vn 0.000000 0.000000 1.000000
vn 0.000000 0.000000 1.000000
vn 0.000000 0.000000 1.000000
vn 0.000000 0.000000 1.000000
vn 0.013124 -0.442064 0.896887
vn 0.013124 -0.442064 0.896887
vn 0.013124 -0.442064 0.896887
vn 0.013124 -0.442064 0.896887
vn 0.000000 -1.000000 0.000000
vn 0.000000 -1.000000 0.000000
s off
g pCube16
usemtl initialShadingGroup
f 5/1/1 6/2/2 10/3/3 7/4/4
s 1
f 8/5/5 9/6/6 11/7/7 12/8/8
s off
f 1/9/9 2/10/10 6/2/11 5/1/12
f 8/5/13 7/4/14 10/3/15 9/6/16
s 1
f 12/8/8 11/7/7 4/11/17 3/12/18
