# This file uses centimeters as units for non-parametric coordinates.

mtllib medio-derecha.mtl
g default
v 6.774092 -2.291591 2.244133
v 2.285824 -2.291591 2.244133
v 6.774092 -2.291590 -8.403386
v 6.774092 -5.229066 2.244133
v 2.285824 -5.229066 2.244133
v 6.774092 -5.229066 -8.403386
vt 0.000000 0.000000
vt 1.000000 0.000000
vt 1.000000 1.000000
vt 0.000000 1.000000
vt 0.000000 0.000000
vt 1.000000 0.000000
vt 1.000000 1.000000
vt 0.000000 1.000000
vn 0.000000 0.000000 1.000000
vn 0.000000 0.000000 1.000000
vn 0.000000 0.000000 1.000000
vn 0.000000 0.000000 1.000000
vn 1.000000 0.000000 0.000000
vn 1.000000 0.000000 0.000000
vn 1.000000 0.000000 0.000000
vn 1.000000 0.000000 0.000000
s off
g pCube9
usemtl initialShadingGroup
f 1/1/1 2/2/2 5/3/3 4/4/4
f 3/5/5 1/6/6 4/7/7 6/8/8
