# This file uses centimeters as units for non-parametric coordinates.

mtllib medio-superior-mirroreado.mtl
g default
v 2.187553 -2.234642 5.366421
v -2.300710 -2.234642 5.366421
v 2.187553 2.253625 -5.281099
v -2.300710 2.253625 -5.281099
v 2.187553 0.998759 5.366421
v -2.300710 0.998759 5.366421
v 2.187553 1.628980 4.981254
v 2.187553 2.253625 4.739051
v -2.300710 2.253625 4.739051
v -2.300710 1.626254 5.113949
vt 0.337532 0.204854
vt 0.350161 0.251171
vt 0.067415 0.323473
vt 0.055941 0.281033
vt 0.361527 0.293201
vt 0.531410 0.921911
vt 0.249797 0.998008
vt 0.079913 0.369297
vt 0.282652 0.001992
vt 0.001061 0.078171
vn 0.013046 0.452150 0.891847
vn 0.013046 0.452150 0.891847
vn 0.013046 0.452150 0.891847
vn 0.013046 0.452150 0.891847
vn 0.000000 1.000000 0.000000
vn 0.000000 1.000000 0.000000
vn 0.000000 1.000000 0.000000
vn 0.000000 1.000000 0.000000
vn 0.000000 0.000000 1.000000
vn 0.000000 0.000000 1.000000
vn 0.000000 0.000000 1.000000
vn 0.000000 0.000000 1.000000
vn 0.013124 0.442064 0.896888
vn 0.013124 0.442064 0.896888
vn 0.013124 0.442064 0.896888
vn 0.013124 0.442064 0.896888
s off
g pCube15 pCube6
usemtl initialShadingGroup
f 5/1/1 7/2/2 10/3/3 6/4/4
f 8/5/5 3/6/6 4/7/7 9/8/8
f 1/9/9 5/1/10 6/4/11 2/10/12
f 8/5/13 9/8/14 10/3/15 7/2/16
