# This file uses centimeters as units for non-parametric coordinates.

mtllib medio-izquierda.mtl
g default
v -2.238955 -2.300025 5.315657
v 2.249313 -2.300025 5.315657
v -2.238956 -2.300025 -5.331863
v -2.238956 -5.237501 5.315657
v 2.249313 -5.237501 5.315657
v -2.238956 -5.237501 -5.331862
v -2.238956 -5.237501 -0.008102
v -2.238955 -2.300025 -0.008102
vt 0.244441 0.027571
vt 0.184946 0.317345
vt 0.000000 0.308499
vt 0.042077 0.000000
vt 0.021305 0.657284
vt 0.207155 0.638687
vt 0.257873 0.973061
vt 0.071075 1.000000
vn 0.000000 0.000000 1.000000
vn 0.000000 0.000000 1.000000
vn 0.000000 0.000000 1.000000
vn 0.000000 0.000000 1.000000
vn -1.000000 0.000000 0.000000
vn -1.000000 0.000000 0.000000
vn -1.000000 0.000000 0.000000
vn -1.000000 0.000000 0.000000
vn -1.000000 0.000000 0.000000
vn -1.000000 0.000000 0.000000
s off
g pCube3 pCube2
usemtl lambert3SG
f 2/1/1 1/2/2 4/3/3 5/4/4
s 1
f 7/5/5 8/6/6 3/7/7 6/8/8
f 1/2/9 8/6/6 7/5/5 4/3/10
